<svg width="207" height="127" viewBox="0 0 207 127" fill="none" xmlns="http://www.w3.org/2000/svg">
<path d="M142.168 48.1905V74.6427C142.168 77.7311 139.666 80.2326 136.578 80.2326H136.246C133.157 80.2326 130.648 77.7311 130.648 74.6427V46.072H73.6423V74.6086C73.6423 77.6971 71.1323 80.207 68.0438 80.207H67.5589C64.4704 80.207 61.9604 77.6971 61.9604 74.6086V48.0884L73.5572 34.1689H130.486L142.168 48.1905Z" fill="#4CA9EE"/>
<path d="M73.4891 34.1691H73.5572L61.9604 48.0886V5.59844C61.9604 2.50995 64.4704 0 67.5589 0H67.8907C70.9792 0 73.4806 2.50995 73.4806 5.59844V34.1691H73.4891Z" fill="#29E7CD"/>
<path d="M142.167 5.62411V48.1909L130.485 34.1608V5.62411C130.485 2.53561 132.995 0.0341797 136.084 0.0341797H136.577C139.666 0.0341797 142.167 2.53561 142.167 5.62411Z" fill="#29E7CD"/>
<path d="M56.2425 16.9312V54.9546L46.1857 67.0278C45.2753 66.0324 44.7223 64.7051 44.7223 63.2587V46.0295H39.0218C35.9333 46.0295 33.4233 43.5195 33.4233 40.431V39.929C33.4233 36.8405 35.9333 34.3306 39.0218 34.3306H44.6627V16.9397C44.6627 13.8513 47.1727 11.3413 50.2612 11.3413H50.644C53.7325 11.3328 56.2425 13.8427 56.2425 16.9312Z" fill="#29E7CD"/>
<path d="M170.696 39.8354V40.2778C170.696 43.3663 168.186 45.8763 165.097 45.8763H159.499V63.2416C159.499 64.7476 158.903 66.1174 157.934 67.1214L147.843 55.0141V16.9397C147.843 13.8512 150.344 11.3413 153.433 11.3413H153.773C156.862 11.3413 159.371 13.8512 159.371 16.9397V34.237H165.089C168.195 34.237 170.696 36.7384 170.696 39.8354Z" fill="#29E7CD"/>
<path d="M56.2423 54.9546V63.2586C56.2423 66.3471 53.7324 68.8571 50.6439 68.8571H50.3206C48.687 68.8571 47.2065 68.1509 46.1855 67.0278L56.2423 54.9546Z" fill="#4CA9EE"/>
<path d="M157.934 67.1214C156.921 68.1764 155.483 68.84 153.901 68.84H153.433C150.344 68.84 147.843 66.3386 147.843 63.2501V55.0142L157.934 67.1214Z" fill="#4CA9EE"/>
</svg>
