<svg width="337" height="262" viewBox="0 0 337 262" fill="none" xmlns="http://www.w3.org/2000/svg">
<g clip-path="url(#clip0)">
<path d="M67.4166 90.1525C67.9959 87.6248 67.5219 85.1498 67.1533 82.6749C66.4161 77.9882 65.7842 73.3542 66.2581 68.6149C66.6267 67.0878 67.2586 66.5612 68.6278 67.8776C69.207 68.4042 69.9969 68.7729 70.8921 68.6675C72.9985 69.7734 75.3681 70.142 77.5272 70.9845C75.5261 70.5633 74.8942 71.4058 75.1575 73.3542C75.3681 74.6707 75.2102 76.0398 74.8415 77.3563C74.2096 79.3573 73.6304 81.3584 72.9985 83.3068C72.5772 84.5179 72.5772 85.5711 73.5251 86.519C73.841 88.1514 74.3676 89.7312 74.4203 91.3636C74.4729 93.2594 75.2102 93.2594 76.5266 92.5221C76.5793 92.6801 76.7373 92.8907 76.7373 93.0487C76.632 98.262 76.632 103.528 76.2633 108.741C76.158 110.216 76.316 111.848 75.6314 113.322C74.9469 114.639 73.683 115.166 72.3666 115.534C71.2081 115.903 69.9442 116.113 68.9964 117.009C67.9432 117.956 67.9432 119.01 69.1017 119.747C70.6288 120.642 72.4192 121.011 73.841 119.8C75.2628 118.641 76.7373 118.325 78.475 118.325C80.3181 118.378 81.1606 117.325 81.0027 115.482C80.95 114.586 80.6341 113.691 80.1601 112.901C79.8968 109.426 80.4234 105.95 81.6346 102.791C83.3197 98.3146 84.2675 94.0492 82.5298 89.4679C84.6888 89.1519 86.6899 89.5732 88.5329 90.6264C95.5366 94.6812 102.593 98.7359 109.597 102.843C113.23 105.002 113.125 107.372 109.491 109.478C106.753 111.058 103.909 112.48 101.329 114.376C100.908 114.323 100.645 114.586 100.276 114.797C88.9015 121.327 77.5798 127.856 66.2054 134.386C65.9422 132.28 65.2576 130.279 63.2039 129.278C59.2544 127.435 52.7247 129.226 49.9338 132.648C47.3008 135.861 46.7216 139.599 46.9849 143.602C45.8264 143.602 44.7732 143.233 43.8253 142.706C36.5583 138.546 29.2914 134.333 22.0771 130.068C18.8122 128.12 18.8649 125.855 22.0244 123.854C22.3404 123.644 22.709 123.433 23.025 123.275C37.2429 115.06 51.5135 106.793 65.7842 98.5779C66.7847 97.9987 67.6272 97.3668 67.6272 96.103C67.6272 94.4179 67.8379 92.7328 67.5219 91.0477C67.7852 90.6264 67.7326 90.3631 67.4166 90.1525ZM68.8384 114.428C71.682 114.428 72.6825 113.165 71.998 110.532C71.7347 109.636 71.4714 108.952 70.3655 109.689C69.5756 110.216 68.6278 110.163 67.7326 109.794C67.2586 109.584 66.7847 109.32 66.3634 109.9C65.4156 111.163 63.9411 111.321 62.6246 111.848C61.1502 112.375 59.2544 112.691 59.4651 114.902C59.6231 116.113 62.3613 116.851 64.1517 116.324C64.6257 116.166 65.0996 115.903 65.4682 115.534C66.3634 114.586 67.5219 114.323 68.8384 114.428Z" fill="#AD2E2F"/>
<path d="M225.447 47.0246C224.288 45.7081 223.13 44.3916 222.024 43.0752C220.181 40.9688 219.286 38.5465 219.654 35.7555C221.234 35.7555 222.761 35.6502 224.288 35.4922C227.185 35.1763 229.976 34.1758 232.924 34.1231C234.715 34.3864 236.505 34.7024 238.296 34.8603C241.877 35.1763 245.615 36.3348 248.88 33.6492C249.249 34.3864 249.565 35.1763 249.565 36.0188C249.459 39.4943 250.302 42.7065 252.566 45.3922C255.463 48.815 259.096 49.7629 263.256 48.3411C263.835 48.1304 264.362 47.9198 264.941 47.8671C266.626 47.6565 267.311 46.498 267.732 45.0235C268.048 43.7597 267.89 42.3906 268.522 41.2321C269.891 44.3916 270.049 47.6565 270.049 51.0793C270.049 55.3974 270.523 59.7681 270.892 64.0862C271.05 66.1399 271.998 66.9298 273.788 66.8771C273.893 66.9824 273.999 67.0351 274.157 67.1404C274.104 68.1409 274.051 69.1414 273.999 70.142C272.998 72.3536 272.156 74.7233 268.943 74.0387C267.68 73.7754 266.363 73.5121 265.099 73.2489C262.73 72.5116 260.413 71.8271 258.043 71.0898C256.095 70.2473 254.146 69.4047 252.198 68.5622C250.723 67.8776 249.301 67.2457 247.827 66.5611C247.195 65.8239 246.247 65.4553 245.457 64.9287C244.983 63.3489 245.51 62.2957 247.037 61.7165C248.354 61.2426 248.248 60.4527 247.616 59.4522C245.721 56.7139 243.456 56.5559 241.087 59.0835C237.295 57.0298 234.188 54.0283 230.66 51.6059C230.292 51.2373 229.87 50.9214 229.502 50.5528C228.554 49.6049 227.606 48.7097 226.658 47.7618C226.237 47.6038 225.816 47.3405 225.447 47.0246ZM253.672 62.5064C254.725 62.9803 255.831 62.6644 256.937 62.717C257.832 62.7697 257.885 62.4011 257.516 61.6638C256.568 59.8734 255.673 58.083 254.778 56.2926C252.724 52.2379 252.724 52.2378 248.301 52.6591C247.09 52.7644 246.879 53.1331 247.248 54.2389C248.09 56.7665 249.67 58.8202 251.303 60.8213C251.776 61.7165 252.356 62.6117 253.672 62.5064Z" fill="#32493F"/>
<path d="M177 118.694C178.896 118.167 180.423 116.903 182.108 115.955C187.374 112.901 192.482 112.691 197.906 115.955C207.384 121.695 217.126 127.119 226.763 132.701C231.081 135.176 231.976 137.546 230.607 142.601C230.555 142.022 230.502 141.495 230.449 140.811C229.185 141.285 228.817 142.548 227.711 143.022C223.393 144.971 219.391 147.551 215.336 149.921C209.491 153.343 203.593 156.714 197.801 160.189C191.692 163.823 185.478 167.245 179.317 170.879C171.682 175.408 163.835 179.568 156.252 184.254C150.723 187.677 145.352 188.783 139.77 184.939C136.927 182.991 133.767 181.674 130.871 179.778C128.238 178.093 125.552 176.461 122.656 175.092C119.128 173.407 115.81 171.248 112.493 169.141C110.544 167.877 108.227 167.035 107.016 164.876C106.964 162.875 106.437 160.768 108.438 159.347C108.596 159.505 108.754 159.663 108.965 159.873C108.649 162.138 110.386 162.875 111.861 163.77C121.708 169.457 131.503 175.197 141.403 180.832C143.825 182.201 146.195 183.78 149.249 183.254C150.671 183.464 151.934 182.938 153.146 182.201C165.573 174.986 178.106 167.983 190.323 160.505C193.798 159.031 196.905 156.924 200.17 155.029C208.438 150.289 216.705 145.497 224.973 140.705C226.605 139.757 226.763 138.704 225.499 137.23C224.551 136.124 223.34 135.334 222.129 134.597C215.441 130.7 208.754 126.856 202.066 123.012C198.116 120.747 194.272 118.325 190.112 116.377C187.532 115.166 185.057 115.06 182.529 116.693C180.686 117.904 178.685 118.852 176.737 119.905C176.842 119.536 176.579 119.01 177 118.694ZM216.126 128.857C216.073 128.278 215.599 128.172 215.178 128.12C214.704 128.067 214.178 128.225 214.072 128.699C213.967 129.384 214.546 129.489 215.073 129.542C215.547 129.594 215.968 129.436 216.126 128.857ZM217.126 130.331C217.495 130.279 217.811 130.121 217.758 129.805C217.758 129.436 217.442 129.331 217.074 129.331C216.705 129.331 216.442 129.489 216.442 129.857C216.495 130.226 216.758 130.384 217.126 130.331Z" fill="#124586"/>
<path d="M279.422 151.606C283.74 149.289 287.637 146.076 292.482 144.813C295.746 143.97 298.853 144.339 301.855 146.076C312.071 152.027 322.287 157.977 332.608 163.77C335.504 165.402 336.873 167.456 336.189 170.721C334.82 172.722 332.871 174.249 330.765 175.25C326.657 177.198 322.919 179.778 318.916 181.885C312.334 185.36 306.12 189.468 299.591 192.996C295.799 194.997 292.218 197.419 288.374 199.368C283.845 201.737 279.527 204.528 275.104 207.108C269.575 210.321 263.94 213.375 258.464 216.692C255.568 218.43 252.513 218.43 249.459 217.746C245.668 216.903 242.824 214.217 239.506 212.374C232.924 208.688 226.236 205.055 219.812 201.053C217.39 199.526 214.388 198.736 212.598 196.103C212.545 196.84 212.492 197.472 212.492 198.104C212.334 195.418 211.281 192.522 213.704 190.258C214.546 190.837 213.651 191.995 214.493 192.575C215.283 193.259 216.073 193.891 217.021 194.418C226.71 199.999 236.347 205.634 246.089 211.163C247.774 212.111 249.301 213.375 251.302 213.691C253.409 214.375 255.568 214.481 257.516 213.48C260.465 211.953 263.361 210.321 266.205 208.636C274.683 203.686 283.108 198.736 291.586 193.786C291.955 193.628 292.324 193.522 292.64 193.312C304.751 186.308 316.863 179.304 328.974 172.353C332.397 170.405 332.503 168.931 329.343 166.666C326.183 164.402 322.655 162.717 319.285 160.768C313.229 157.24 307.068 153.817 301.012 150.342C299.222 149.025 297.274 148.025 295.273 147.13C292.745 146.076 290.323 146.024 287.9 147.551C284.951 149.394 281.844 150.974 278.79 152.712C278.58 152.185 279.211 152.027 279.422 151.606ZM320.338 158.978C320.022 159.136 319.443 159.136 319.39 159.663C319.39 160.347 319.97 160.452 320.496 160.4C320.918 160.347 321.497 160.294 321.497 159.768C321.549 159.136 320.97 159.083 320.338 158.978Z" fill="#134587"/>
<path d="M0.802222 238.072C0.696903 235.281 -0.356279 232.332 2.32934 230.121C2.53997 230.173 2.75061 230.173 3.01391 230.226C2.32934 232.069 3.01391 233.385 4.75166 234.228C5.38357 234.544 6.01548 234.912 6.59473 235.281C17.0739 241.284 27.5531 247.287 38.0322 253.291C41.0865 255.028 44.1407 254.765 47.0896 253.08C53.4087 249.446 59.6751 245.813 65.9942 242.127C71.9447 238.651 77.8952 235.228 83.8457 231.753C84.5303 231.437 85.2675 231.174 85.8467 230.594C86.11 230.436 86.3207 230.278 86.584 230.121C86.9526 229.963 87.3212 229.857 87.6371 229.647C94.9041 225.487 102.171 221.274 109.438 217.114C112.282 215.481 115.073 213.849 117.863 212.164C120.338 210.689 120.549 209.373 118.495 207.477C116.652 205.792 114.388 204.739 112.229 203.528C104.014 198.736 95.852 193.944 87.5845 189.31C80.5282 185.308 79.159 185.624 74.525 188.73C74.1564 188.625 74.1038 188.309 74.0511 188.046C76.5787 186.571 79.1064 185.097 82.0553 184.676C84.7936 184.254 87.3212 184.57 89.7435 185.992C100.117 191.995 110.439 198.051 120.865 203.896C123.867 205.581 125.13 207.74 124.446 211.058C123.656 211.427 123.393 212.322 122.655 212.796C117.126 216.534 111.386 219.852 105.541 223.064C102.75 224.591 100.065 226.224 97.2211 227.698C93.9036 229.383 90.9547 231.753 87.6371 233.438C82.3712 236.176 77.3686 239.441 72.1554 242.285C67.9426 244.602 63.8352 247.024 59.7278 249.499C55.7784 251.869 51.6183 253.87 47.7742 256.397C45.3519 257.977 42.7189 258.82 39.8226 258.346C37.3477 257.977 35.2413 256.819 33.0296 255.608C28.5009 253.08 24.0776 250.447 19.6015 247.814C15.7048 245.55 11.65 243.443 7.80589 241.074C5.48889 239.599 2.69795 238.809 0.960199 236.176C0.960199 236.966 0.90754 237.545 0.802222 238.072ZM108.859 200.526C109.385 200.526 109.965 200.368 109.912 199.842C109.859 199.21 109.227 199.21 108.701 199.262C108.332 199.315 107.858 199.368 107.858 199.789C107.858 200.473 108.438 200.473 108.859 200.526Z" fill="#134587"/>
<path d="M281.107 102.633C283.53 103.633 285.689 103.159 287.742 101.527C289.164 100.421 290.428 101.158 289.796 102.527C288.427 105.476 290.323 107.846 290.428 110.479C290.533 112.585 289.954 114.744 290.797 116.798C290.481 117.904 289.585 119.062 291.218 119.958C289.427 122.275 289.954 124.802 290.481 127.382C290.323 128.752 290.744 129.91 292.008 130.384C293.272 130.858 294.377 130.331 295.325 129.331C296.062 128.541 296.589 127.646 297.221 126.751C297.958 127.54 297.853 128.594 298.59 129.226C298.643 130.121 298.695 131.016 298.695 131.911C298.748 135.071 297.274 136.545 294.114 136.65C292.008 136.703 290.007 136.124 288.058 135.439C286.689 133.86 285.899 132.016 285.583 129.91C285.425 128.857 285.689 127.488 284.267 126.961C285.373 125.803 285.162 124.276 283.793 123.275C284.635 120.905 283.688 119.484 281.371 119.431C280.475 119.378 279.58 119.694 278.738 119.115C279.633 119.115 280.528 119.115 281.476 119.062C281.845 119.062 282.318 119.273 282.476 118.746C282.634 118.325 282.213 118.062 282.002 117.746C280.686 116.113 278.896 115.218 276.895 114.744C273.156 113.849 269.417 114.376 265.678 114.744C265.204 114.797 265.046 115.113 264.994 115.534C264.73 115.376 264.52 115.271 264.256 115.113C261.465 114.586 258.622 114.323 256.357 112.269C255.041 110.321 254.356 108.267 254.462 105.845C254.567 103.528 254.462 103.528 252.355 104.581C251.092 105.213 249.722 105.898 248.564 104.792C247.405 103.739 246.194 103.581 244.825 103.633C243.614 97.9987 246.458 95.0498 252.197 96.1029C255.515 96.6822 257.095 98.262 257.674 101.579C257.779 102.211 257.569 102.949 258.411 103.212C258.359 103.528 258.253 103.844 258.201 104.16C257.832 106.319 258.727 108.004 260.412 108.373C260.254 108.794 260.36 109.004 260.834 109.215C262.624 109.952 264.204 109.268 265.573 108.32C267.837 106.74 269.996 104.897 272.576 103.791C273.05 103.581 273.103 103.317 272.945 102.896C273.577 103.001 274.104 103.159 274.841 103.001C276.842 102.685 278.948 102.527 281.107 102.633Z" fill="#CC8956"/>
<path d="M268.522 41.2848C267.89 42.4433 268.048 43.8124 267.732 45.0762C267.311 46.6034 266.679 47.7092 264.941 47.9198C264.362 47.9725 263.835 48.2358 263.256 48.3938C259.096 49.8156 255.463 48.815 252.566 45.4449C250.302 42.7592 249.407 39.547 249.565 36.0715C249.617 35.1763 249.302 34.4391 248.88 33.7019C249.038 31.0162 247.774 28.5939 247.3 26.0136C247.195 22.2748 247.458 18.6413 249.723 15.4291C251.355 14.3233 253.356 14.3233 255.199 13.8494C256.147 15.5345 257.2 17.1669 258.043 18.9046C259.201 21.327 261.518 22.4855 263.941 21.6429C266.258 20.853 267.153 18.9573 266.416 16.1664C266.258 15.4818 266.31 15.3765 266.942 15.4291C269.523 17.6935 272.103 19.9578 273.999 22.9067C273.893 23.0647 273.841 23.328 273.735 23.328C268.733 23.3807 266.047 26.4349 266.679 31.4375C266.942 33.4912 267.469 35.4923 268.154 37.4407C268.575 38.7045 268.68 39.9683 268.522 41.2848Z" fill="#2F201D"/>
<path d="M284.267 127.014C285.689 127.54 285.426 128.962 285.584 129.963C285.9 132.069 286.69 133.86 288.059 135.492C286.953 136.229 285.742 136.703 284.478 136.914C282.635 137.23 281.792 138.125 281.476 139.968C280.897 143.496 280.002 146.919 279.265 150.395C279.159 150.816 278.896 151.29 279.423 151.606C279.212 151.974 278.633 152.132 278.791 152.764C278.106 154.502 279.001 157.135 280.581 158.241C280.528 158.609 280.37 159.031 280.476 159.347C281.476 162.506 281.318 165.613 280.318 168.667C279.159 172.143 278.738 175.671 279.475 179.304C279.686 180.41 279.844 181.621 279.159 182.727C277.264 183.306 275.42 183.517 273.999 181.674C273.893 180.094 273.735 178.462 273.63 176.882C273.367 172.985 273.103 169.036 272.788 165.139C272.735 164.455 272.735 163.507 271.787 163.243C273.103 161.137 272.314 159.031 271.682 156.977C271.787 156.661 272.05 156.398 271.576 156.187C272.156 155.502 272.103 154.765 271.84 153.975C270.418 149.289 269.681 144.444 268.838 139.652C268.627 138.441 268.101 137.862 266.995 137.23C264.204 135.755 261.624 133.965 261.097 130.489C264.309 134.018 268.153 135.439 272.945 134.386C277 133.491 279.738 130.121 279.159 126.119C280.897 126.382 282.582 126.698 284.267 127.014Z" fill="#4D685B"/>
<path d="M49.8288 191.205C47.6698 189.52 48.0911 187.151 48.3017 184.939C48.4597 182.885 48.8283 180.779 49.7762 178.936C51.6193 175.408 51.1453 172.037 49.4076 168.72C48.9863 167.877 48.565 166.982 48.1438 166.087C49.4602 166.298 50.0921 167.509 51.198 168.035C53.2517 168.983 55.6213 168.773 57.5171 170.194C57.833 170.405 58.4649 170.774 58.9389 170.247C59.3602 169.72 58.9389 169.194 58.7282 168.773C57.6751 166.456 57.8857 164.139 58.5176 161.769C59.5181 158.03 60.2027 154.291 57.6224 150.816C58.4123 150.763 59.2022 150.71 59.9394 150.658C62.1511 151.448 63.3096 153.712 65.4686 154.607C68.4702 157.293 70.1553 161.137 73.4201 163.559C73.7361 163.77 74.052 164.402 73.9467 164.718C73.4201 166.456 72.7356 168.141 72.1037 169.878C70.4712 169.457 69.418 167.983 67.7856 167.456C66.8377 167.193 66.4691 167.14 66.1532 168.246C65.3106 171.248 64.7314 174.302 65.1527 177.409C65.258 179.199 64.6261 180.305 62.783 180.832C61.3612 181.253 60.3607 182.359 59.7288 183.675C58.8336 185.571 58.0437 187.467 57.2011 189.362C53.8836 193.154 53.0411 193.364 49.8288 191.205Z" fill="#32493F"/>
<path d="M177 118.694C176.579 119.01 176.842 119.536 176.684 119.905C176.105 120.695 175.578 121.432 176.105 122.538C176.526 123.38 176.737 124.381 177 125.276C177.369 128.383 177.527 131.385 176.684 134.491C175.684 138.336 174.315 142.18 175.368 146.287C175.526 147.024 175.578 147.814 175.736 148.551C176 149.868 175.789 151.026 174.262 151.395C172.788 151.711 171.26 152.343 169.944 150.974C169.997 144.76 169.891 138.546 169.154 132.332C169.154 130.331 168.627 128.436 168.364 126.487C168.364 126.224 168.364 125.908 168.364 125.645C168.259 125.118 168.101 124.644 167.996 124.118C168.101 123.433 168.101 122.748 167.522 122.169C168.101 119.747 168.469 117.377 167.258 115.06C168.311 115.639 168.048 114.744 168.101 114.27C168.311 111.585 168.522 108.846 168.68 106.161C168.733 105.476 169.101 104.739 168.417 104.16C169.47 102.527 169.049 100.421 169.997 98.7359C170.523 98.8939 171.102 99.1045 171.629 99.2625C175.894 100.368 180.212 101.632 184.004 97.8407C184.057 98.7886 184.109 99.6838 184.162 100.579C183.899 104.581 181.95 108.057 180.423 111.585C179.317 114.007 178.159 116.324 177 118.694Z" fill="#3A2B24"/>
<path d="M83.8991 81.1477C87.6379 80.1472 91.1134 80.6738 94.5363 82.6749C104.436 88.52 114.389 94.3125 124.394 99.8944C127.501 101.632 128.817 103.844 128.133 107.319C125.868 109.9 122.867 111.585 119.918 113.059C115.811 115.06 112.124 117.588 108.122 119.747C102.224 122.906 96.5373 126.487 90.6921 129.752C86.3214 132.227 82.0034 134.86 77.5274 137.23C74.1045 139.073 70.945 141.337 67.5748 143.18C66.6269 143.707 65.837 143.917 64.8892 143.338C65.1525 142.496 65.4684 141.706 65.7317 140.863C66.0477 140.389 66.5216 140.073 67.0482 139.757C70.9976 137.493 74.9471 135.229 78.8438 132.912C85.2156 129.173 91.64 125.434 98.0118 121.695C98.4857 121.485 98.9596 121.274 99.3809 121.011C106.174 117.114 113.02 113.217 119.76 109.215C121.182 108.373 123.341 108.057 123.393 105.845C123.446 103.633 121.445 102.896 119.918 102.053C110.334 96.4189 100.75 90.8897 91.1134 85.3605C88.6911 83.9913 86.3214 82.4642 83.3199 82.5695C83.2145 82.0429 83.6358 81.6217 83.8991 81.1477ZM113.546 95.9976C113.494 95.471 113.02 95.313 112.598 95.2604C112.072 95.2077 111.493 95.313 111.387 95.945C111.282 96.5242 111.914 96.6295 112.282 96.6822C112.809 96.7348 113.283 96.6295 113.546 95.9976ZM115.126 97.1561C115.284 96.8402 115.073 96.6295 114.863 96.5242C114.494 96.3662 114.125 96.3662 113.862 96.7875C113.652 97.1035 113.915 97.2614 114.125 97.3668C114.494 97.5247 114.863 97.5247 115.126 97.1561Z" fill="#134588"/>
<path d="M169.891 98.7886C168.996 100.474 169.418 102.58 168.312 104.212C165.047 106.108 161.15 106.108 157.043 107.425C162.151 108.32 164.678 111.69 167.101 115.113C168.312 117.43 167.943 119.852 167.364 122.222C161.887 119.062 156.253 116.219 150.987 112.743C149.776 111.953 148.67 111.058 147.564 110.11C144.457 107.425 144.194 105.16 146.616 101.79C148.617 98.9465 151.461 97.1035 154.462 95.471C156.727 94.2072 159.202 93.312 161.624 92.3641C163.046 94.6285 164.204 97.2614 167.522 97.1561C168.154 98.104 169.26 98.104 169.891 98.7886Z" fill="#2F201D"/>
<path d="M91.6923 31.8588C90.4811 34.597 88.4801 36.7034 86.4264 38.7571C83.5828 41.6007 82.319 45.0762 81.4238 48.8677C80.9498 51.0267 81.7397 52.9751 82.2663 54.9235C82.2136 55.0814 82.2136 55.3447 82.0557 55.4501C79.4227 57.2931 76.4738 58.3463 73.3669 57.5038C71.8925 57.1351 69.5228 57.0825 69.6808 54.4495C69.8387 53.5543 69.9441 52.6591 70.1547 51.7639C70.7339 49.4469 70.576 47.3932 68.5749 45.6028C67.1531 44.2863 66.9425 42.3379 67.785 40.5475C68.3116 39.4943 68.1537 38.8098 67.5744 37.9146C66.4686 36.2295 65.2574 34.597 64.6255 32.7013C65.3627 31.1742 67.1005 30.7529 68.101 29.5417C69.7334 31.0162 70.9446 33.1226 73.6829 32.6486C73.8935 32.8593 74.2095 33.0699 74.3148 33.3332C75.21 35.2816 76.2105 35.6502 78.0536 34.6497C78.5802 34.3864 79.0541 34.0704 79.528 33.7545C83.0562 34.3337 85.3205 33.1226 87.4796 29.5417C88.7434 29.9104 89.4806 31.3322 91.0077 31.1215C91.4817 31.0689 91.587 31.4901 91.6923 31.8588Z" fill="#2F201D"/>
<path d="M167.574 97.2615C164.257 97.3668 163.098 94.7338 161.676 92.4695C161.518 90.3105 159.939 88.9413 158.675 87.3615C155.884 83.886 154.725 80.3052 158.043 76.3558C158.569 75.7239 159.043 74.9866 159.57 74.3547C161.992 71.3532 164.678 68.6675 167.574 66.1399C168.206 65.6133 169.049 65.4027 169.839 65.0341C170.365 65.0867 170.681 65.2974 170.681 65.8766C169.997 65.4553 169.628 65.8766 169.207 66.3505C167.89 67.983 166.574 69.5627 165.257 71.1952C163.467 73.4069 163.73 75.7765 164.731 78.1988C164.994 78.7781 165.257 79.3573 165.52 79.9366C163.888 79.8839 162.624 80.6212 162.098 82.043C161.571 83.5174 163.625 87.1509 164.994 87.9408C165.731 88.3621 166.363 88.8887 167.048 89.3626C167.311 90.4158 166.416 92.1009 168.522 92.1009C172.682 92.1535 176.684 91.311 180.581 90.0472C181.16 89.8365 181.634 89.5732 181.476 88.7833C180.844 85.5711 181.371 82.1483 179.844 79.094C179.107 77.5669 179.159 75.9345 179.212 74.3021C179.265 70.9845 181.371 69.826 184.32 71.3005C186.216 73.5122 186.795 76.2505 187.111 79.0414C187.163 79.7786 187.058 80.6212 187.901 81.0424C187.111 81.727 187.374 82.6222 187.479 83.4121C187.953 86.6243 187.374 89.6785 186.689 92.7854C186.373 94.3125 185.004 94.4179 183.899 94.8391C182.529 95.1024 181.16 95.471 179.738 95.629C175.736 96.0503 171.576 96.0503 167.574 97.2615Z" fill="#F3B5A6"/>
<path d="M212.492 198.156C212.545 197.524 212.598 196.84 212.598 196.155C214.335 198.788 217.337 199.578 219.812 201.105C226.236 205.055 232.924 208.688 239.506 212.427C242.771 214.27 245.667 216.956 249.459 217.798C252.513 218.483 255.567 218.483 258.464 216.745C263.94 213.48 269.575 210.373 275.104 207.161C279.527 204.581 283.845 201.79 288.374 199.42C292.218 197.419 295.799 195.049 299.59 193.048C306.12 189.52 312.334 185.413 318.916 181.937C322.918 179.831 326.657 177.251 330.765 175.302C332.871 174.302 334.819 172.775 336.189 170.774C336.873 173.933 335.083 175.566 332.608 176.935C311.544 189.046 290.533 201.158 269.522 213.322C265.836 215.429 262.202 217.588 258.516 219.641C254.672 221.8 250.828 221.8 246.984 219.641C236.61 213.691 226.236 207.688 215.862 201.685C214.441 200.842 212.861 200.052 212.492 198.156Z" fill="#112E56"/>
<path d="M279.159 126.066C279.738 130.121 277 133.438 272.945 134.334C268.101 135.387 264.309 133.965 261.097 130.437C259.464 128.172 256.937 127.698 254.462 127.277C253.04 127.014 251.671 126.751 250.354 126.277C247.563 125.223 246.879 122.696 246.194 120.221C246.721 119.431 246.668 118.483 246.563 117.588C246.352 115.955 247.037 114.376 246.879 112.691C247.195 112.48 247.511 112.269 247.827 112.006C250.038 112.059 250.354 112.375 249.88 114.534C249.565 115.903 250.038 116.324 251.302 116.324C253.725 116.324 255.41 115.008 256.305 112.322C258.569 114.376 261.413 114.586 264.204 115.166C263.625 115.534 263.045 115.166 262.519 115.166C260.518 115.113 259.148 115.955 258.833 117.588C258.464 119.115 259.359 120.905 260.992 121.537C262.677 122.169 264.414 122.696 266.205 122.959C270.997 123.749 275.841 124.592 280.739 124.223C280.107 124.75 279.264 124.328 278.474 124.802C278.685 125.223 278.948 125.645 279.159 126.066Z" fill="#14D7DB"/>
<path d="M268.891 74.0915C272.103 74.7234 272.945 72.3537 273.946 70.1947C273.893 71.3532 274.051 71.9851 275.42 71.2479C280.212 68.6676 285.004 66.1399 289.586 63.2963C294.009 60.5054 298.748 58.2937 303.067 55.3448C305.068 53.9757 307.648 53.3438 309.017 50.7108C309.07 51.7113 309.122 52.3432 309.175 52.9752C308.912 55.0289 307.279 55.8187 305.752 56.714C288.743 66.5612 271.734 76.3558 254.673 86.2031C247.09 90.5738 239.454 94.9445 231.871 99.3679C227.764 101.738 223.762 101.738 219.707 99.3679C210.123 93.786 200.539 88.3094 190.955 82.7802C190.376 82.4643 189.849 82.0957 189.323 81.727C189.586 80.9898 190.271 80.6739 190.955 80.4632C191.903 80.1473 192.693 79.568 193.378 78.9361C193.746 78.6202 194.378 78.2515 194.273 77.725C194.115 77.0404 193.43 77.409 192.956 77.251C191.692 76.9351 190.903 76.4085 191.64 74.934C192.324 76.2505 193.904 76.3032 194.905 77.251C194.905 77.8829 194.694 78.3569 194.273 78.8308C192.693 80.6739 192.746 81.0425 194.852 82.1483C198.591 84.1494 202.224 86.361 205.963 88.4148C210.913 91.1004 215.6 94.2599 220.55 96.9982C224.183 99.0519 227.975 98.7886 231.239 96.8402C237.98 92.7328 244.983 89.0993 251.671 84.9393C256.726 81.7797 262.045 79.1467 267.258 76.3032C268.311 75.7239 268.733 75.0393 268.891 74.0915Z" fill="#112F56"/>
<path d="M0.802734 238.072C0.855394 237.493 0.960712 236.966 1.06603 236.176C2.80378 238.809 5.59472 239.599 7.91172 241.074C11.7558 243.496 15.7579 245.55 19.7074 247.814C24.1834 250.394 28.6068 253.08 33.1355 255.608C35.2945 256.819 37.4535 257.977 39.9285 258.346C42.8247 258.82 45.5104 257.977 47.88 256.397C51.7241 253.87 55.8842 251.869 59.8336 249.499C63.9411 247.024 68.0485 244.602 72.2612 242.285C77.4744 239.441 82.4244 236.176 87.743 233.438C91.0605 231.753 94.0094 229.383 97.327 227.698C100.171 226.224 102.856 224.591 105.647 223.064C111.492 219.852 117.232 216.534 122.761 212.796C123.499 212.322 123.709 211.426 124.552 211.058C125.184 213.901 123.657 215.534 121.34 216.85C100.276 228.962 79.2649 241.126 58.2539 253.238C54.4624 255.397 50.7236 257.609 46.9321 259.768C43.1933 261.927 39.2966 261.979 35.5578 259.82C24.868 253.712 14.2308 247.551 3.59367 241.39C2.27719 240.652 1.06603 239.757 0.802734 238.072Z" fill="#112E55"/>
<path d="M106.964 164.876C108.175 167.088 110.492 167.93 112.441 169.141C115.758 171.248 119.076 173.459 122.604 175.092C125.5 176.461 128.186 178.093 130.819 179.778C133.715 181.674 136.874 182.938 139.718 184.939C145.3 188.836 150.671 187.677 156.2 184.254C163.731 179.568 171.63 175.408 179.265 170.879C185.374 167.246 191.64 163.823 197.748 160.189C203.594 156.714 209.439 153.396 215.284 149.921C219.339 147.498 223.341 144.918 227.659 143.022C228.765 142.548 229.186 141.285 230.397 140.811C230.45 141.495 230.502 142.022 230.555 142.601C230.239 144.075 229.081 144.865 227.869 145.55C203.014 159.926 178.159 174.249 153.304 188.625C149.302 190.942 145.3 190.942 141.245 188.625C130.766 182.569 120.287 176.514 109.808 170.458C107.701 169.194 106.49 167.509 106.964 164.876Z" fill="#112E54"/>
<path d="M57.2532 189.468C58.0958 187.572 58.8857 185.623 59.7809 183.78C60.4128 182.464 61.4133 181.358 62.8351 180.937C64.6782 180.41 65.3101 179.304 65.2048 177.514C65.3101 178.778 65.942 179.673 66.8899 180.568C68.9436 182.569 71.0499 184.623 72.7877 186.94C73.1563 187.414 73.4196 187.94 74.0515 188.046C74.1042 188.362 74.1568 188.678 74.5254 188.73C75.6839 191.153 77.527 193.154 78.8961 195.418C79.4754 196.366 80.0546 197.261 80.5812 198.262C81.5291 200.105 81.0552 201.474 79.0541 202.053C73.209 203.633 67.3111 205.213 61.2027 205.423C61.4133 204.16 60.6234 203.264 60.0968 202.316C61.8346 200.579 64.2042 199.894 66.258 198.63C67.2058 198.051 69.0489 197.998 69.0489 197.051C69.0489 195.787 67.3111 195.313 66.258 194.576C65.8367 194.26 65.3101 194.102 64.7835 194.207C64.5202 193.628 64.0463 193.996 63.6777 193.996C62.7824 193.522 61.8872 192.996 60.8341 193.364C60.7287 192.311 59.6229 192.574 59.0963 192.101C58.2011 191.416 56.6213 191.205 57.2532 189.468Z" fill="#9AAC36"/>
<path d="M83.8992 81.1478C83.636 81.6217 83.2673 82.043 83.32 82.6222C82.4248 84.8339 81.1083 87.0456 82.6881 89.4679C84.4258 94.0493 83.478 98.3673 81.7929 102.791C80.5817 105.95 80.0551 109.426 80.3184 112.901C78.844 113.796 77.2642 113.744 75.6844 113.27C76.369 111.795 76.211 110.216 76.3163 108.689C76.6849 103.475 76.6849 98.2093 76.7903 92.9961C76.7903 92.8381 76.6323 92.6275 76.5796 92.4695C77.0009 89.9945 76.7376 87.6248 76.0004 85.2552C75.9477 82.5696 75.5791 79.884 74.8945 77.251C75.3158 75.9345 75.4211 74.618 75.2105 73.2489C74.9472 71.3005 75.5791 70.458 77.5802 70.8792C78.5807 70.8266 79.6339 70.9319 80.6344 70.7213C83.8466 70.0367 85.0577 67.5617 85.7423 64.6655C86.4269 69.6681 85.2684 74.4074 84.1625 79.1994C84.0046 79.884 83.6886 80.4632 83.8992 81.1478Z" fill="#C53C39"/>
<path d="M309.228 52.9751C309.175 52.3432 309.123 51.6586 309.07 50.7108C307.648 53.2911 305.12 53.923 303.119 55.3448C298.801 58.2937 294.062 60.558 289.639 63.2963C285.057 66.1399 280.265 68.7202 275.473 71.2478C274.104 71.9851 273.894 71.3532 273.999 70.1947C274.052 69.1941 274.104 68.1936 274.157 67.1931C274.631 68.5622 275.421 67.7723 276.053 67.4037C284.425 62.5591 292.798 57.7671 301.171 52.8698C305.91 50.0789 305.963 48.4991 301.066 45.6555C292.64 40.7582 284.162 35.9662 275.737 31.1216C275.737 29.5418 274.789 27.9094 275.631 26.3296C285.426 31.9641 295.168 37.5986 304.962 43.2858C309.544 45.9715 310.228 47.4459 309.228 52.9751ZM294.694 39.5997C294.431 39.0204 293.957 38.8625 293.43 38.9151C292.956 38.9678 292.43 39.1258 292.535 39.6524C292.64 40.2843 293.272 40.3369 293.746 40.2843C294.115 40.2843 294.641 40.1789 294.694 39.5997Z" fill="#134588"/>
<path d="M191.745 74.934C191.008 76.3558 191.798 76.935 193.062 77.251C193.536 77.3563 194.273 76.9877 194.378 77.7249C194.483 78.2515 193.851 78.5675 193.483 78.9361C192.746 79.568 192.008 80.1472 191.061 80.4632C190.376 80.6738 189.691 80.9371 189.428 81.727C188.954 81.5164 188.48 81.3057 187.954 81.0951C187.111 80.6212 187.216 79.8313 187.164 79.094C186.9 76.3031 186.321 73.5648 184.373 71.3532C183.478 69.4048 181.635 68.4569 180.055 67.1931C179.054 65.2447 179.318 63.2436 179.791 61.1899C180.213 59.3995 179.37 58.2937 177.896 58.715C176 59.2415 174.631 58.5043 173.262 57.5038C171.629 56.2926 169.997 56.1873 168.312 57.3985C167.101 52.7645 167.575 50.5001 170.05 49.289C174.21 47.2353 179.318 48.1305 181.74 51.448C183.794 54.2389 184.636 57.3458 183.846 60.8213C183.056 64.4021 184.267 66.2979 187.69 67.0878C188.533 67.2984 189.323 67.4037 190.165 67.5617C190.534 67.7197 190.955 67.825 191.324 67.983C191.534 68.4042 192.008 68.2989 192.324 68.4569C194.641 69.3521 195.01 70.6159 193.535 72.617C193.009 73.2489 192.377 74.0914 191.745 74.934Z" fill="#2F201D"/>
<path d="M275.579 26.2769C274.736 27.9094 275.684 29.4891 275.684 31.0689C275.789 33.6492 275.894 36.2295 276.052 38.8098C275.473 41.4428 275.894 44.0757 275.789 46.7087C275.631 50.0789 274.841 53.3437 274.157 56.6613C273.788 58.399 273.419 60.3474 275.842 61.1899C275.894 62.0325 275.894 62.875 276.052 63.6649C276.421 65.5607 275.789 66.6665 273.841 66.9298C272.05 66.9825 271.102 66.1926 270.945 64.1389C270.576 59.8208 270.102 55.4501 270.102 51.1321C270.102 47.7092 269.944 44.4443 268.575 41.2848C268.733 39.9683 268.628 38.7045 268.206 37.4933C267.522 35.5449 266.995 33.5439 266.732 31.4902C266.1 26.5402 268.786 23.486 273.788 23.3807C273.893 23.3807 273.946 23.1174 274.051 22.9594C274.789 23.9073 274.262 25.5397 275.579 26.2769Z" fill="#FDC1AF"/>
<path d="M57.6748 150.868C60.2551 154.344 59.5705 158.083 58.57 161.822C57.9381 164.191 57.6748 166.508 58.7806 168.825C58.9913 169.247 59.4125 169.773 58.9913 170.3C58.5173 170.826 57.8854 170.458 57.5695 170.247C55.7264 168.773 53.3041 169.036 51.2504 168.088C50.1445 167.561 49.5126 166.298 48.1961 166.14C46.4584 163.875 45.6685 161.137 44.5626 158.557C44.4047 158.135 44.4573 157.661 43.9834 157.398C44.51 154.66 46.1424 152.712 48.4594 151.184C48.986 150.868 49.5126 150.395 49.4073 149.605C49.5653 149.447 49.7232 149.341 49.8812 149.183C51.777 150.026 53.5147 149.552 55.3051 148.815C56.095 149.447 56.8849 150.184 57.6748 150.868Z" fill="#592A1A"/>
<path d="M85.7422 64.7181C85.0576 67.6143 83.8465 70.0893 80.6343 70.7739C79.6337 70.9845 78.5805 70.8792 77.58 70.9318C75.421 70.0893 73.0513 69.668 70.945 68.6148C70.7343 68.1936 70.3657 68.0356 69.9444 67.825C68.5753 67.1404 67.4695 66.1399 66.9429 64.6128C67.1535 61.0319 68.3647 57.7671 69.6811 54.5022C69.5232 57.1352 71.9455 57.1878 73.3673 57.5564C76.4742 58.399 79.4231 57.3458 82.056 55.5027C82.1614 55.3974 82.1614 55.1341 82.2667 54.9761C84.1098 57.9777 85.5842 61.1372 85.7422 64.7181Z" fill="#32493F"/>
<path d="M4.4358 134.333C4.06719 132.543 4.11985 130.7 4.4358 128.91C5.01505 128.594 5.22569 127.224 6.27887 128.12C6.64749 129.278 7.49003 129.91 8.49056 130.489C18.0745 136.019 27.6058 141.495 37.1898 147.024C40.5073 148.92 43.7195 151.184 47.8796 150.5C47.2477 151.184 46.6158 151.816 46.0892 152.501C44.5621 154.607 42.6137 154.818 40.4547 153.712C37.8744 152.396 35.3467 150.921 32.8191 149.499C30.1335 147.972 27.4479 146.392 24.7096 144.865C22.3926 143.601 20.0229 142.39 17.8112 141.021C14.5464 139.02 11.2815 137.019 7.91131 135.123C6.64749 134.386 5.01505 133.86 4.64644 132.069C4.48846 132.806 4.4358 133.544 4.4358 134.333Z" fill="#124587"/>
<path d="M64.7834 143.338C65.7312 143.917 66.5211 143.707 67.469 143.18C70.8918 141.337 74.0514 139.073 77.4216 137.23C81.8976 134.86 86.163 132.227 90.5864 129.752C96.4315 126.435 102.119 122.854 108.017 119.747C112.019 117.641 115.757 115.06 119.812 113.059C122.761 111.637 125.763 109.9 128.027 107.319C128.659 110.374 126.763 111.795 124.499 113.112C108.385 122.38 92.2714 131.701 76.1577 140.969C70.7339 144.075 65.3626 147.182 59.9387 150.289C60.2547 149.341 58.7802 147.709 60.7813 147.551C62.6243 147.446 63.4669 146.708 63.8355 145.023C64.0461 144.444 64.5201 143.917 64.7834 143.338Z" fill="#112E55"/>
<path d="M249.723 15.4291C247.511 18.6413 247.248 22.2748 247.301 26.0136C246.985 26.1189 246.669 26.1716 246.405 26.3822C244.036 28.1726 241.719 29.963 239.033 31.3322C237.032 32.3853 234.715 32.754 232.925 34.1758C229.976 34.2284 227.185 35.2289 224.289 35.5449C222.709 35.7029 221.182 35.8082 219.655 35.8082C218.654 34.3864 218.338 32.9119 219.549 31.3848C220.708 29.8577 222.077 29.6471 223.551 30.8582C225.079 32.1747 226.606 31.9114 228.238 31.1215C229.713 30.437 231.134 29.6471 232.661 29.2258C236.506 28.2779 238.138 24.9604 240.297 22.2221C241.982 20.0631 243.825 18.0621 246.142 16.5349C247.143 15.7977 248.354 15.3764 249.723 15.4291Z" fill="#FBC2B0"/>
<path d="M260.307 108.53C258.622 108.162 257.779 106.477 258.095 104.318C258.148 104.002 258.201 103.686 258.306 103.37C258.938 99.5258 260.465 96.2082 264.204 94.5231C268.311 92.6801 272.208 93.6279 275.736 96.2609C278 97.946 279.422 100.421 281.107 102.633C278.948 102.527 276.842 102.685 274.736 103.159C274.051 103.317 273.472 103.107 272.84 103.054C267.679 100.368 266.205 100.79 262.94 105.74C262.255 106.845 261.413 107.793 260.307 108.53Z" fill="#B37446"/>
<path d="M298.59 129.278C297.853 128.646 297.958 127.593 297.221 126.803C296.589 127.698 296.062 128.594 295.325 129.383C294.377 130.384 293.271 130.858 292.008 130.437C290.691 129.963 290.323 128.752 290.481 127.435C291.955 127.066 292.798 126.013 293.429 124.749C295.22 121.379 298.011 119.326 301.697 118.43C304.646 117.746 307.331 116.377 310.017 115.166C311.86 115.639 312.229 116.535 311.65 119.168C307.331 122.485 302.961 125.855 298.59 129.278Z" fill="#476156"/>
<path d="M246.879 112.743C247.037 114.376 246.352 115.955 246.563 117.641C246.668 118.483 246.721 119.431 246.194 120.273C238.875 122.275 231.713 122.801 224.71 119.062C223.13 118.22 221.339 117.746 219.654 117.114C217.969 115.218 217.916 114.586 219.602 113.586C225.868 117.693 232.608 116.903 239.349 115.324C241.929 114.744 244.351 113.638 246.879 112.743Z" fill="#02A5A5"/>
<path d="M254.041 6.84568C254.356 0.78988 258.622 -0.789895 264.414 0.368607C268.311 1.10583 270.207 4.16007 269.575 8.05684C269.259 9.84725 268.996 11.6903 267.732 13.1121C266.363 12.7962 265.362 12.1643 265.362 10.5318C265.362 9.42598 264.73 9.00471 263.677 8.74141C260.781 8.1095 257.674 8.95205 254.83 7.63557C254.567 7.37227 254.304 7.10898 254.041 6.84568Z" fill="#CC8A56"/>
<path d="M69.4704 24.3812C69.1544 20.8004 70.0497 19.1679 73.1565 17.6935C73.8938 17.3775 74.315 17.0089 74.631 16.1664C75.3682 14.06 77.7906 13.1648 79.9496 14.06C82.2139 15.0079 83.4777 17.3249 82.7932 19.3259C82.6352 19.7999 82.2666 20.2211 82.4772 20.8004C83.5831 24.1706 82.2139 27.0142 80.6341 29.8578C80.0549 28.6993 81.0028 27.6461 80.9501 26.5402C80.8974 25.645 80.8974 24.2759 79.5283 25.2238C77.3166 26.6982 76.0001 25.7503 74.3677 24.2232C72.1034 22.0642 71.6821 22.1695 69.7864 24.3812C69.7864 24.4339 69.5757 24.3812 69.4704 24.3812Z" fill="#2F201D"/>
<path d="M4.43652 134.333C4.48918 133.596 4.48918 132.806 4.54184 132.069C4.91046 133.86 6.54289 134.439 7.80671 135.123C11.1769 136.966 14.4418 138.967 17.7066 141.021C19.9183 142.39 22.288 143.601 24.605 144.865C27.3433 146.34 29.9762 147.972 32.7145 149.499C35.2421 150.921 37.7698 152.396 40.3501 153.712C42.5091 154.818 44.4575 154.607 45.9846 152.501C46.5112 151.764 47.1957 151.132 47.775 150.5C48.3016 150.236 48.8282 149.921 49.3021 149.657C49.4074 150.447 48.8808 150.921 48.3543 151.237C46.0373 152.711 44.4575 154.66 43.8782 157.451C42.1405 157.556 40.5607 156.977 39.0862 156.082C28.3964 149.921 17.7066 143.759 7.01682 137.546C5.85832 136.756 4.69982 135.861 4.43652 134.333Z" fill="#122E55"/>
<path d="M168.417 57.2932C170.102 56.082 171.787 56.1873 173.367 57.3985C174.736 58.4517 176.105 59.1362 178.001 58.6096C179.475 58.1884 180.318 59.3469 179.897 61.0846C179.37 63.1383 179.107 65.1394 180.16 67.0878C179.001 70.142 176.369 71.4585 173.42 70.5633C172.735 70.3526 171.998 69.9313 172.366 69.2468C173.314 67.6143 172.735 66.9298 171.208 66.4558C170.997 66.4032 170.892 66.0346 170.734 65.8766C170.734 65.2973 170.418 65.0867 169.891 65.034C169.365 62.4538 168.891 59.8735 168.417 57.2932Z" fill="#FCC0AE"/>
<path d="M57.2536 189.468C56.6216 191.205 58.2541 191.416 59.044 192.153C59.5706 192.627 60.6764 192.364 60.7817 193.417C60.7291 194.26 60.0445 194.997 60.3078 195.945C60.1498 196.261 59.8865 196.577 60.0445 196.998C59.2546 198.736 58.6754 200.526 58.9386 202.474C57.8855 203.212 56.7796 203.791 55.3578 203.686C54.3046 203.633 53.3568 204.054 52.6195 204.897C52.3036 203.949 52.0403 202.948 51.7243 202C51.777 201.632 51.6717 201.369 51.4084 201.158C51.4084 197.735 50.2499 194.523 49.8286 191.205C53.0408 193.364 53.8834 193.154 57.2536 189.468Z" fill="#879C2A"/>
<path d="M254.831 7.58295C257.674 8.89943 260.728 8.05688 263.677 8.68879C264.73 8.89943 265.362 9.37336 265.362 10.4792C265.362 12.1116 266.363 12.7435 267.732 13.0595C267.469 13.8494 266.784 14.4813 266.942 15.4292C266.31 15.3765 266.258 15.5345 266.416 16.1664C267.153 18.9573 266.258 20.8531 263.941 21.6429C261.518 22.4855 259.201 21.327 258.043 18.9047C257.2 17.1669 256.147 15.5345 255.199 13.8494C255.199 13.4808 255.147 13.0595 255.147 12.6909C255.778 12.4276 256.252 12.0063 256.358 11.3217C256.41 10.9531 256.358 10.4792 256.884 10.4265C257.516 10.3739 257.306 10.9531 257.411 11.2691C258.095 13.2701 261.255 14.376 263.045 13.2175C263.414 12.9542 263.835 12.5856 263.783 12.1116C263.677 11.2164 264.309 10.7952 264.888 10.1106C262.835 10.3212 261.097 8.95208 259.201 9.21538C257.306 9.47868 255.989 8.89943 254.831 7.58295ZM259.781 18.7467C261.413 20.0632 264.994 19.0626 265.626 17.1669C265.678 16.9563 265.678 16.5877 265.573 16.4823C265.257 16.1664 264.994 16.535 264.73 16.693C263.203 17.5882 261.571 18.2728 259.781 18.7467Z" fill="#FBC1AF"/>
<path d="M68.1539 29.5418C67.1534 30.753 65.4156 31.1742 64.6784 32.7014C60.9922 26.5929 61.2029 20.1685 62.9406 13.5334C63.3092 12.1116 63.6252 10.6372 63.9938 9.16272C64.8364 10.4265 66.3108 10.3212 67.522 10.6898C66.2055 15.0079 65.4683 19.3786 66.1002 23.9073C66.3108 25.961 66.9954 27.8041 68.1539 29.5418Z" fill="#334940"/>
<path d="M256.252 112.375C255.41 115.06 253.725 116.377 251.25 116.377C249.986 116.377 249.512 115.955 249.828 114.586C250.302 112.427 249.986 112.111 247.774 112.059C246.984 110.637 246.195 109.215 245.405 107.793C245.984 106.529 245.826 105.424 244.667 104.581C244.667 104.318 244.667 104.054 244.72 103.791C246.089 103.686 247.3 103.844 248.459 104.95C249.617 106.003 250.987 105.371 252.25 104.739C254.409 103.633 254.515 103.686 254.357 106.003C254.251 108.372 254.989 110.426 256.252 112.375Z" fill="#FDC1AF"/>
<path d="M69.4702 24.3811C69.5755 24.3811 69.7862 24.4338 69.8388 24.3811C71.6819 22.1694 72.1558 22.0641 74.4202 24.2231C76 25.7503 77.3691 26.7508 79.5808 25.2237C80.9499 24.2758 81.0026 25.6449 81.0026 26.5401C81.0552 27.646 80.1074 28.6465 80.6866 29.8577C79.6861 31.0162 78.4749 32.0693 79.5808 33.8071C79.1068 34.1231 78.5803 34.3864 78.1063 34.7023C76.2632 35.7028 75.2627 35.3869 74.3675 33.3858C74.2622 33.1225 73.9462 32.9119 73.7356 32.7013C71.9979 30.7002 70.734 28.3832 70.2601 25.7503C70.1021 25.1183 69.5755 24.9077 69.4702 24.3811Z" fill="#FCC1B0"/>
<path d="M72.156 169.984C72.788 168.246 73.4725 166.561 73.9991 164.823C74.1044 164.507 73.7885 163.875 73.4725 163.665C70.2077 161.19 68.4699 157.398 65.521 154.713C65.6263 154.397 65.837 154.133 65.837 153.817C65.837 152.764 66.0476 151.658 67.2587 151.658C68.5752 151.658 69.7337 152.343 69.7337 153.87C69.6811 156.345 70.8396 158.293 72.156 160.189C73.2092 161.716 74.3151 163.296 75.6842 164.612C77.422 166.298 78.4751 168.299 79.265 170.51C79.6863 171.721 79.3177 172.248 78.1592 172.353C77.106 172.459 76.0528 172.195 75.2103 171.616C74.2098 170.984 73.2092 170.405 72.156 169.984Z" fill="#F8C2B2"/>
<path d="M91.6927 31.8588C91.5874 31.4902 91.4821 31.0162 91.0081 31.1216C89.481 31.2795 88.7438 29.9104 87.48 29.5418C89.8496 25.1184 91.6927 20.4318 92.4826 15.4291C93.6938 15.6924 94.9576 16.6403 96.2741 15.2185C96.3794 15.9557 96.432 16.4297 96.4847 16.9036C95.4315 22.0642 93.7991 27.0668 91.6927 31.8588Z" fill="#334940"/>
<path d="M311.702 119.115C312.282 116.482 311.913 115.587 310.07 115.113C311.07 114.744 312.071 114.376 312.966 113.691C314.756 112.322 316.81 113.007 317.337 115.166C317.705 116.64 318.443 117.535 319.601 118.378C320.97 119.273 321.76 120.589 321.708 122.327C321.708 123.222 321.497 124.065 320.654 124.486C319.864 124.855 319.075 124.434 318.495 123.907C317.705 123.17 316.916 122.38 316.284 121.485C315.125 119.8 313.756 118.852 311.702 119.115Z" fill="#FBC2B1"/>
<path d="M6.27959 128.12C5.17375 127.225 5.01577 128.594 4.43652 128.91C4.80514 126.435 6.64821 125.171 8.54394 124.065C19.3917 117.746 30.2922 111.479 41.1926 105.213C49.934 100.158 58.6754 95.1551 67.4695 90.1525C67.7855 90.3631 67.7855 90.6791 67.6802 90.995C66.5743 91.5743 65.4685 92.1535 64.4153 92.7328C53.0936 99.2625 41.7719 105.845 30.3975 112.375C23.1832 116.535 15.9689 120.695 8.75457 124.855C7.4381 125.592 6.22693 126.382 6.27959 128.12Z" fill="#24547C"/>
<path d="M167.575 97.2614C171.577 96.1029 175.684 96.1029 179.792 95.629C181.213 95.471 182.583 95.1024 183.952 94.8391C183.794 96.7875 184.847 98.6832 184.11 100.632C184.057 99.7364 184.004 98.8412 183.952 97.8933C180.16 101.685 175.842 100.421 171.577 99.3151C170.998 99.1572 170.471 98.9992 169.944 98.7885C169.26 98.104 168.154 98.104 167.575 97.2614Z" fill="#889A2D"/>
<path d="M271.523 156.187C271.997 156.398 271.787 156.714 271.629 156.977C270.365 157.661 269.154 158.346 267.89 159.083C260.518 163.349 253.198 167.614 245.826 171.932C235.978 177.567 226.079 183.254 216.231 188.888C214.757 189.731 214.125 190.942 214.494 192.627C213.704 192.048 214.546 190.889 213.704 190.31C214.336 189.31 215.231 188.572 216.231 187.993C234.504 177.461 252.829 166.877 271.102 156.345C271.26 156.24 271.418 156.24 271.523 156.187Z" fill="#23547B"/>
<path d="M167.891 124.223C167.996 124.75 168.154 125.223 168.259 125.75C167.522 125.171 166.943 125.697 166.311 126.066C162.888 128.014 159.412 129.91 155.99 131.964C151.882 134.439 147.564 136.545 143.615 139.336C143.193 139.547 142.772 139.705 142.404 139.915C132.451 145.655 122.498 151.342 112.598 157.082C111.282 157.872 109.808 158.451 108.912 159.873C108.754 159.715 108.596 159.557 108.386 159.347C108.965 158.346 109.808 157.662 110.755 157.135C129.871 146.129 148.881 135.176 167.891 124.223Z" fill="#26547A"/>
<path d="M64.7838 143.338C64.4679 143.917 64.0466 144.444 63.9413 145.023C63.5727 146.708 62.7301 147.446 60.887 147.551C58.886 147.656 60.3605 149.341 60.0445 150.289C60.0445 150.395 59.9918 150.553 59.9918 150.658C59.202 150.711 58.4121 150.763 57.6748 150.816C56.885 150.131 56.0951 149.447 55.3052 148.762C55.4105 148.394 55.5685 148.078 55.6738 147.709C57.9381 147.34 59.5706 145.919 60.2025 143.812C61.0977 140.811 63.0461 138.652 65.2051 136.651C65.8897 138.02 65.3104 139.494 65.679 140.863C65.3631 141.706 65.0471 142.548 64.7838 143.338Z" fill="#F7C1B1"/>
<path d="M51.4078 201.158C51.6711 201.369 51.7764 201.685 51.7238 202.001C43.035 206.792 34.3989 211.69 25.9208 216.903C25.1309 217.061 24.499 217.588 23.9198 218.062C21.1288 219.641 18.2852 221.168 15.4943 222.801C11.3342 225.329 6.91086 227.382 2.96142 230.278C2.75079 230.226 2.54015 230.226 2.27686 230.173C2.80345 229.225 3.64599 228.646 4.59386 228.119C20.2336 219.115 35.8207 210.11 51.4078 201.158Z" fill="#24547C"/>
<path d="M96.4842 16.9562C96.4316 16.4823 96.3789 15.9557 96.2736 15.2711C94.9571 16.6929 93.746 15.6924 92.4821 15.4818C92.2715 13.9546 91.2183 12.6908 90.955 11.1637C90.8497 10.5845 90.1125 9.84723 90.7444 9.42595C91.7449 8.79404 91.5343 10.1105 91.9555 10.4265C92.1662 10.5845 92.3241 10.7424 92.5348 10.9004C93.0614 10.3212 92.7981 9.74191 92.8507 9.16266C92.9561 8.26745 92.4295 6.89832 93.9039 6.89832C95.2731 6.89832 96.1683 7.89884 96.2736 9.26798C96.4316 10.6371 96.4842 12.0063 96.3262 13.3754C96.2209 14.5865 97.2741 15.7451 96.4842 16.9562Z" fill="#F7C3B3"/>
<path d="M254.83 7.58293C255.989 8.89941 257.305 9.47866 259.201 9.21536C261.097 8.95207 262.835 10.3212 264.888 10.1106C264.309 10.7425 263.677 11.2164 263.783 12.1116C263.835 12.5855 263.467 12.9542 263.045 13.2175C261.308 14.376 258.095 13.2701 257.411 11.2691C257.305 10.9531 257.569 10.3739 256.884 10.4265C256.358 10.4792 256.41 10.9531 256.358 11.3217C256.2 12.0063 255.726 12.4276 255.146 12.6909C254.304 12.2169 254.462 11.3744 254.462 10.6372C254.462 9.37334 254.515 8.05686 254.093 6.8457C254.304 7.109 254.567 7.37229 254.83 7.58293Z" fill="#FCD9CD"/>
<path d="M67.4696 10.6898C66.2057 10.3212 64.784 10.4265 63.9414 9.16269C64.5207 7.10898 65.6265 5.26591 66.627 3.37018C67.2063 2.26434 68.2595 1.94839 69.418 2.52764C70.5765 3.10689 70.7871 4.05475 70.3658 5.31857C69.6286 7.26696 68.7334 9.05737 67.4696 10.6898Z" fill="#F9C2B3"/>
<path d="M191.429 67.825C191.06 67.667 190.639 67.5617 190.27 67.4037C200.697 61.3479 211.123 55.2921 221.602 49.2363C222.866 48.4991 224.183 47.7092 225.446 46.972C225.815 47.2879 226.236 47.6039 226.605 47.8672C225.236 47.7092 224.288 48.6044 223.235 49.1837C215.968 53.3437 208.701 57.5038 201.434 61.7692C198.116 63.8229 194.535 65.4553 191.429 67.825Z" fill="#26577D"/>
<path d="M290.797 116.798C289.954 114.744 290.534 112.585 290.428 110.479C291.218 112.111 290.481 113.902 290.902 115.639C291.587 115.797 291.955 115.271 292.429 114.955C294.062 113.849 296.8 114.06 298.169 115.429C298.748 116.008 298.696 116.745 298.59 117.43C298.485 118.114 297.959 118.746 297.274 118.641C295.431 118.483 293.746 119.273 291.955 119.484C292.482 118.22 292.798 117.009 290.797 116.798Z" fill="#F9C2B2"/>
<path d="M219.602 113.586C217.917 114.586 217.917 115.218 219.654 117.114C217.864 117.272 216.021 116.798 214.336 117.798C213.704 118.167 213.072 117.851 212.598 117.272C212.072 116.587 212.124 115.85 212.493 115.06C213.809 112.48 216.232 111.953 219.602 113.586Z" fill="#F9C2B2"/>
<path d="M290.797 116.798C292.798 117.009 292.429 118.22 291.955 119.484C291.692 119.642 291.481 119.8 291.218 119.905C289.586 119.062 290.481 117.904 290.797 116.798Z" fill="#A74038"/>
<path d="M66.9424 64.5601C67.469 66.0872 68.5749 67.0877 69.944 67.7723C70.3653 67.9829 70.7339 68.1409 70.9445 68.5622C70.0493 68.6675 69.2068 68.2989 68.6802 67.7723C67.311 66.5084 66.6791 66.9824 66.3105 68.5095C66.2052 67.193 66.4158 65.8765 66.9424 64.5601Z" fill="#773E3B"/>
<path d="M244.667 104.634C245.826 105.476 245.984 106.582 245.404 107.846C244.509 106.898 244.509 105.792 244.667 104.634Z" fill="#CC8956"/>
<path d="M6.27949 128.12C6.22683 126.382 7.43799 125.592 8.70181 124.855C15.9161 120.695 23.1304 116.535 30.3447 112.375C41.6664 105.845 52.9882 99.2625 64.3625 92.7327C65.4157 92.1008 66.5216 91.5742 67.6274 90.995C67.9434 92.6801 67.7327 94.3652 67.7327 96.0503C67.7327 97.3667 66.8902 97.946 65.8896 98.5253C51.619 106.74 37.401 115.008 23.1304 123.222C22.8145 123.433 22.4458 123.591 22.1299 123.802C18.9703 125.803 18.9177 128.067 22.1826 130.015C29.3969 134.281 36.6638 138.494 43.9308 142.654C44.8786 143.18 45.9318 143.601 47.0903 143.549C47.7749 144.602 48.4595 145.708 49.144 146.761C48.8281 147.709 49.3547 148.446 49.8813 149.131C49.7233 149.289 49.5653 149.394 49.4073 149.552C48.8807 149.815 48.3541 150.131 47.8802 150.395C43.7201 151.079 40.5079 148.867 37.1904 146.919C27.6591 141.39 18.0751 135.913 8.49117 130.384C7.49065 129.91 6.6481 129.226 6.27949 128.12Z" fill="#62B7D3"/>
<path d="M82.6876 89.4679C81.1078 86.9929 82.4243 84.8338 83.3195 82.6222C86.2684 82.5168 88.6907 84.044 91.113 85.4131C100.75 90.9423 110.334 96.5242 119.918 102.106C121.445 103.001 123.446 103.686 123.393 105.898C123.34 108.057 121.181 108.425 119.76 109.268C112.967 113.27 106.174 117.167 99.3805 121.063C98.9592 121.327 98.4853 121.537 98.0114 121.748C96.8002 119.536 96.9055 118.588 98.538 117.167C99.3805 116.482 100.276 115.85 101.118 115.166C101.382 114.955 101.961 114.902 101.487 114.376C104.067 112.533 106.911 111.111 109.649 109.478C113.283 107.372 113.388 105.002 109.754 102.843C102.751 98.6832 95.747 94.6811 88.6907 90.6264C86.795 89.5732 84.7939 89.1519 82.6876 89.4679Z" fill="#5789DE"/>
<path d="M49.1442 146.761C48.4596 145.708 47.775 144.602 47.0904 143.549C46.8271 139.547 47.4064 135.861 50.0394 132.596C52.8303 129.173 59.3074 127.383 63.3095 129.226C65.4158 130.173 66.0477 132.175 66.311 134.334C66.1531 135.229 65.6265 135.913 65.1525 136.651C62.9935 138.704 61.0451 140.811 60.1499 143.812C59.518 145.866 57.9382 147.288 55.6212 147.709C53.6202 146.498 51.3558 146.656 49.1442 146.761Z" fill="#572919"/>
<path d="M65.1523 136.65C65.6263 135.913 66.1529 135.229 66.3108 134.333C77.6852 127.804 89.0596 121.274 100.381 114.744C100.697 114.534 101.013 114.27 101.435 114.323C101.856 114.85 101.277 114.955 101.066 115.113C100.223 115.797 99.3281 116.377 98.4856 117.114C96.8005 118.536 96.7478 119.484 97.959 121.695C91.5872 125.434 85.1628 129.173 78.7911 132.912C74.8416 135.176 70.9448 137.493 66.9954 139.757C66.4688 140.073 65.9949 140.337 65.6789 140.863C65.2577 139.494 65.8369 138.02 65.1523 136.65Z" fill="#5C98D9"/>
<path d="M75.6842 113.323C77.264 113.796 78.8438 113.796 80.3182 112.954C80.7922 113.744 81.0555 114.586 81.1608 115.534C81.2661 117.43 80.4762 118.43 78.6331 118.378C76.8954 118.325 75.4209 118.694 73.9991 119.852C72.5247 121.011 70.7869 120.695 69.2598 119.8C68.0487 119.062 68.1013 118.009 69.1545 117.061C70.1024 116.166 71.3135 115.955 72.5247 115.587C73.7358 115.166 74.9997 114.639 75.6842 113.323Z" fill="#FCBFAE"/>
<path d="M68.8384 114.428C67.5745 114.323 66.416 114.586 65.4155 115.534C65.0469 115.903 64.573 116.166 64.099 116.324C62.3086 116.903 59.5704 116.113 59.4124 114.902C59.1491 112.691 61.0448 112.427 62.5719 111.848C63.8884 111.374 65.3629 111.163 66.3107 109.9C66.732 109.32 67.2059 109.584 67.6799 109.794C68.5751 110.163 69.5229 110.216 70.3128 109.689C71.4713 108.899 71.7346 109.584 71.9453 110.532C72.6825 113.165 71.6293 114.428 68.8384 114.428Z" fill="#FCBFAE"/>
<path d="M76.0004 85.3078C76.7377 87.6775 77.001 90.0471 76.5797 92.5221C75.2632 93.2593 74.526 93.2593 74.4733 91.3636C74.4207 89.7312 73.8941 88.1514 73.5781 86.519C74.2627 85.9397 74.9999 85.3605 76.0004 85.3078Z" fill="#6C97CC"/>
<path d="M245.404 65.0867C246.194 65.6133 247.142 65.9819 247.774 66.7191C247.827 67.4564 247.511 68.1409 247.142 68.7202C246.615 69.6154 245.931 70.4053 245.457 71.3531C244.878 72.4063 244.509 73.7228 245.352 74.618C246.089 75.4079 247.3 74.9866 248.301 74.618C250.934 73.5648 252.619 71.8271 252.092 68.7202C254.04 69.5627 255.989 70.4053 257.937 71.2478C254.83 73.6175 251.249 75.1972 247.985 77.251C245.457 78.8834 242.561 79.9366 240.296 81.9903C237.979 82.6748 236.084 84.1493 234.03 85.3605C230.712 87.3089 227.448 88.4147 223.814 86.361C219.865 84.1493 216.02 81.8323 212.124 79.6206C211.492 78.6201 210.439 78.2515 209.491 77.7249C206.91 76.2504 204.278 74.8286 201.75 73.2489C199.538 71.8271 199.486 70.1946 201.434 68.6149C202.276 67.9303 203.224 67.351 204.172 66.8244C207.437 64.9287 210.702 63.033 213.967 61.1899C219.496 58.083 224.867 54.7128 230.554 51.8166C234.083 54.2389 237.189 57.2405 240.981 59.2942C240.244 60.4527 239.664 61.9271 238.348 62.3484C234.925 63.3489 234.925 66.0872 234.872 68.7728C234.82 70.4579 236.031 71.0898 237.505 70.2999C238.559 69.7207 239.348 68.8255 240.033 67.8776C241.402 65.9819 243.087 64.9814 245.404 65.0867Z" fill="#9AAC35"/>
<path d="M212.176 79.5679C216.073 81.8323 219.917 84.1493 223.867 86.3083C227.447 88.3093 230.765 87.2562 234.083 85.3078C236.136 84.0966 238.032 82.5695 240.349 81.9376C238.875 83.412 237.084 84.4652 235.241 85.3604C231.713 87.1508 230.238 90.1524 229.396 93.7332C226.552 94.6284 223.972 93.8912 221.444 92.4694C212.65 87.3615 203.804 82.3062 194.957 77.2509C194.009 76.303 192.377 76.2504 191.692 74.9339C192.324 74.0914 192.956 73.3015 193.588 72.4589C195.062 70.5105 194.693 69.1941 192.376 68.2989C192.008 68.1409 191.587 68.2462 191.376 67.8249C194.483 65.4553 198.064 63.8228 201.381 61.8744C208.596 57.6091 215.862 53.449 223.182 49.2889C224.235 48.7097 225.183 47.7618 226.552 47.9724C227.5 48.9203 228.448 49.8155 229.396 50.7634C229.343 51.4479 228.869 51.7112 228.343 52.0272C223.024 55.1341 217.706 58.1883 212.44 61.2952C208.701 63.5069 204.909 65.6132 201.223 67.9302C199.117 69.2467 199.064 71.4058 200.749 73.1962C201.75 74.2493 203.119 74.7759 204.33 75.4605C206.91 76.8823 209.333 78.6201 212.176 79.5679Z" fill="#62B8D2"/>
<path d="M276 38.8625C275.894 36.2822 275.789 33.7019 275.631 31.1216C284.056 35.9662 292.535 40.7582 300.96 45.6555C305.857 48.4991 305.857 50.1315 301.065 52.8698C292.693 57.7145 284.32 62.5591 275.947 67.4037C275.315 67.7724 274.525 68.5622 274.051 67.1931C273.946 67.0878 273.841 67.0351 273.683 66.9298C275.631 66.6665 276.263 65.5607 275.894 63.6649C275.736 62.875 275.736 62.0325 275.684 61.19C280.423 58.4517 285.268 55.7661 289.954 52.8698C293.061 50.9741 292.956 48.4464 289.744 46.6034C287.795 45.4449 285.847 44.2337 283.846 43.1805C281.266 41.864 278.896 39.863 276 38.8625Z" fill="#5787DD"/>
<path d="M195.01 77.2509C203.857 82.3062 212.651 87.3615 221.498 92.4694C224.025 93.9439 226.606 94.6284 229.449 93.7332C230.344 93.7332 231.082 93.3646 231.819 92.9433C239.56 88.4673 247.301 84.0439 254.936 79.5152C258.359 77.5142 261.94 75.8291 265.047 73.3541C266.311 73.6174 267.627 73.8807 268.891 74.144C268.733 75.0919 268.312 75.7764 267.416 76.2504C262.203 79.094 256.832 81.7269 251.829 84.8865C245.142 89.0465 238.138 92.68 231.398 96.7874C228.133 98.7885 224.341 98.9991 220.708 96.9454C215.758 94.2071 211.071 91.0476 206.121 88.362C202.382 86.3083 198.802 84.0966 195.01 82.0955C192.904 80.9897 192.798 80.6211 194.431 78.778C194.799 78.3567 195.01 77.8302 195.01 77.2509Z" fill="#124586"/>
<path d="M265.047 73.3542C261.94 75.8292 258.306 77.5143 254.936 79.5153C247.248 84.044 239.507 88.4674 231.819 92.9434C231.082 93.3647 230.344 93.7333 229.449 93.7333C230.292 90.1525 231.766 87.1509 235.294 85.3605C237.085 84.4653 238.928 83.4121 240.402 81.9377C242.719 79.9366 245.563 78.8308 248.091 77.1983C251.355 75.092 254.936 73.5649 258.043 71.1952C260.36 71.9324 262.677 72.617 265.047 73.3542Z" fill="#5EA1D5"/>
<path d="M245.404 65.0867C243.14 64.9813 241.455 65.9819 240.086 67.7723C239.401 68.7201 238.611 69.6154 237.558 70.1946C236.084 70.9845 234.82 70.3526 234.925 68.6675C235.03 66.0345 235.03 63.2963 238.401 62.2431C239.717 61.8218 240.296 60.3473 241.034 59.1888C243.403 56.6612 245.668 56.8192 247.563 59.5575C248.248 60.558 248.301 61.3479 246.984 61.8218C245.457 62.4537 244.93 63.5069 245.404 65.0867Z" fill="#FBC2AF"/>
<path d="M251.25 60.7687C249.617 58.7676 248.038 56.7139 247.195 54.1863C246.826 53.0804 247.037 52.7118 248.248 52.6065C252.672 52.2379 252.672 52.1852 254.725 56.24C255.621 58.0304 256.516 59.8208 257.464 61.6112C257.832 62.3485 257.78 62.7171 256.884 62.6644C255.778 62.6117 254.673 62.9277 253.619 62.4538C253.883 62.2958 254.462 62.1378 254.146 61.8745C253.409 61.19 252.724 59.7682 251.25 60.7687Z" fill="#9AAB38"/>
<path d="M252.145 68.6675C252.619 71.7744 250.987 73.5121 248.354 74.5653C247.353 74.9866 246.142 75.3552 245.405 74.5653C244.562 73.6701 244.931 72.3536 245.51 71.3004C245.984 70.4052 246.669 69.5627 247.195 68.6675C247.564 68.0356 247.88 67.4037 247.827 66.6664C249.249 67.351 250.671 68.0356 252.145 68.6675Z" fill="#FAC2AC"/>
<path d="M212.177 79.568C209.333 78.6202 206.911 76.8824 204.331 75.3553C203.119 74.6707 201.75 74.1441 200.75 73.0909C199.065 71.3005 199.117 69.1415 201.224 67.825C204.91 65.5607 208.701 63.4017 212.44 61.19C217.759 58.0831 223.025 54.9762 228.343 51.922C228.87 51.606 229.344 51.3427 229.396 50.6581C229.765 51.0268 230.186 51.3427 230.555 51.7113C224.868 54.6076 219.496 57.9778 213.967 61.0847C210.702 62.9277 207.438 64.8235 204.173 66.7192C203.225 67.2458 202.277 67.8777 201.434 68.5096C199.486 70.0894 199.539 71.7218 201.75 73.1436C204.278 74.7234 206.911 76.1452 209.491 77.6196C210.492 78.1989 211.545 78.5675 212.177 79.568Z" fill="#7FAB7F"/>
<path d="M251.25 60.7686C252.777 59.7681 253.409 61.1899 254.251 61.9271C254.514 62.1904 253.935 62.3484 253.724 62.5064C252.355 62.6117 251.776 61.7165 251.25 60.7686Z" fill="#DAC199"/>
<path d="M177.001 125.276C176.685 124.381 176.474 123.38 176.105 122.538C175.579 121.432 176.105 120.695 176.685 119.905C178.633 118.852 180.634 117.904 182.477 116.693C185.005 115.06 187.48 115.218 190.06 116.377C194.22 118.272 198.064 120.747 202.014 123.012C208.754 126.803 215.389 130.7 222.077 134.597C223.288 135.334 224.499 136.124 225.447 137.23C226.711 138.704 226.553 139.757 224.921 140.705C216.653 145.497 208.438 150.289 200.118 155.029C196.853 156.872 193.746 159.031 190.271 160.505C190.639 159.82 190.113 159.873 189.639 159.715C188.006 159.083 188.059 158.662 188.954 157.24C189.797 155.976 190.85 154.976 191.903 153.975C192.167 153.765 192.64 153.501 192.061 153.08C192.535 152.764 193.009 152.396 193.483 152.08C198.96 148.92 204.436 145.761 209.913 142.654C213.23 140.758 213.336 138.178 210.123 136.282C202.962 132.069 195.747 127.909 188.48 123.749C186.637 122.696 184.636 122.433 182.425 122.854C180.424 123.222 178.896 124.644 177.001 125.276Z" fill="#588DDD"/>
<path d="M108.912 159.873C109.755 158.451 111.229 157.872 112.598 157.082C122.551 151.342 132.503 145.603 142.403 139.915C142.772 139.705 143.246 139.547 143.615 139.336C143.72 139.652 143.878 139.968 144.246 140.021C145.879 140.126 147.195 140.758 148.406 141.864C142.193 145.497 135.926 149.131 129.712 152.817C127.132 154.344 124.499 155.766 121.919 157.345C119.128 159.083 119.181 161.348 121.919 163.138C122.235 163.349 122.551 163.559 122.919 163.77C129.344 167.509 135.821 171.09 142.14 174.986C145.616 177.093 148.933 177.725 152.672 175.934C153.883 175.987 154.304 176.513 153.409 177.461C152.935 177.988 152.619 178.462 152.672 179.146C152.83 180.463 152.093 181.147 151.092 181.832C150.408 182.306 149.565 182.569 149.144 183.359C146.142 183.886 143.72 182.306 141.297 180.937C131.45 175.25 121.603 169.562 111.756 163.875C110.334 162.875 108.596 162.137 108.912 159.873Z" fill="#62BAD2"/>
<path d="M149.196 183.254C149.617 182.464 150.46 182.201 151.144 181.727C152.092 181.042 152.882 180.358 152.724 179.041C152.619 178.357 152.935 177.883 153.461 177.356C154.356 176.408 153.935 175.882 152.724 175.829C154.251 174.881 155.778 173.933 157.305 172.985C164.73 168.667 172.155 164.349 179.633 160.136C183.793 157.767 187.795 155.134 192.113 153.08C192.64 153.501 192.166 153.765 191.955 153.975C190.902 154.976 189.849 155.976 189.006 157.24C188.058 158.662 188.058 159.136 189.691 159.715C190.112 159.873 190.639 159.768 190.323 160.505C178 167.983 165.52 174.986 153.093 182.201C151.881 182.885 150.618 183.412 149.196 183.254Z" fill="#5DA0D9"/>
<path d="M216.126 128.857C215.968 129.436 215.547 129.541 215.126 129.541C214.599 129.541 213.967 129.383 214.125 128.699C214.178 128.225 214.705 128.067 215.231 128.12C215.6 128.225 216.074 128.33 216.126 128.857Z" fill="#B7D0E7"/>
<path d="M217.126 130.331C216.758 130.331 216.442 130.173 216.442 129.857C216.442 129.489 216.705 129.331 217.074 129.331C217.442 129.331 217.758 129.436 217.758 129.805C217.811 130.121 217.495 130.331 217.126 130.331Z" fill="#91B2D7"/>
<path d="M214.494 192.627C214.125 190.942 214.757 189.731 216.232 188.888C226.079 183.254 235.979 177.567 245.826 171.932C246.405 172.722 247.037 173.459 247.564 174.302C247.933 174.881 248.301 175.197 248.986 174.828C251.039 173.775 253.462 173.354 255.357 171.932C255.831 171.616 256.305 171.511 256.832 171.511C251.461 175.144 245.668 178.093 240.086 181.411C237.032 183.254 233.873 184.939 230.871 186.835C228.449 188.414 228.396 190.363 230.66 192.153C231.082 192.469 231.503 192.732 231.977 192.996C237.348 196.103 242.719 199.368 248.143 202.316C250.934 203.844 253.304 206.319 256.779 206.371C256.358 207.53 255.989 208.583 256.253 209.899C256.463 211.005 256.147 212.058 254.778 212.69C253.62 213.217 252.409 213.27 251.303 213.743C249.302 213.375 247.775 212.164 246.089 211.216C236.4 205.687 226.711 200.052 217.022 194.47C216.126 193.944 215.284 193.312 214.494 192.627Z" fill="#63BBD2"/>
<path d="M300.96 150.395C307.068 153.87 313.177 157.24 319.233 160.821C322.603 162.769 326.131 164.455 329.29 166.719C332.45 168.983 332.345 170.458 328.922 172.406C316.81 179.357 304.699 186.413 292.587 193.364C292.271 193.575 291.902 193.68 291.534 193.838C291.06 190.468 293.114 188.256 295.536 186.624C300.275 183.464 305.225 180.674 310.123 177.777C313.335 175.882 316.758 174.249 319.654 171.879C320.286 171.09 320.97 170.352 321.602 169.562C322.497 168.404 321.866 167.456 321.128 166.614C320.444 165.718 319.391 165.244 318.443 164.665C314.072 161.98 309.385 159.768 305.331 156.661C303.382 155.081 300.223 154.081 300.96 150.395Z" fill="#588BDC"/>
<path d="M319.706 171.879C316.758 174.249 313.387 175.882 310.175 177.777C305.278 180.674 300.328 183.517 295.589 186.624C293.166 188.204 291.113 190.415 291.586 193.838C283.108 198.788 274.683 203.791 266.205 208.688C263.361 210.373 260.465 212.006 257.516 213.533C255.515 214.533 253.409 214.481 251.302 213.743C252.408 213.322 253.619 213.217 254.778 212.69C256.147 212.058 256.515 211.005 256.252 209.899C255.989 208.583 256.358 207.53 256.779 206.371C258.517 206.213 260.254 205.897 261.781 205.002C266.257 202.369 270.733 199.736 275.209 197.156C287.795 189.889 300.328 182.622 312.913 175.46C315.125 174.196 317.231 172.669 319.706 171.879Z" fill="#5FA2D1"/>
<path d="M300.96 150.395C300.17 154.081 303.382 155.134 305.436 156.661C309.543 159.768 314.178 161.98 318.548 164.665C319.496 165.244 320.497 165.718 321.234 166.614C321.918 167.456 322.55 168.404 321.708 169.562C321.655 167.772 320.76 166.614 319.18 165.718C312.545 161.927 305.963 158.083 299.433 154.186C296.484 152.396 293.272 151.29 290.06 152.764C286.742 154.291 283.53 156.082 280.528 158.293C278.949 157.188 278.106 154.555 278.738 152.817C281.792 151.132 284.899 149.499 287.848 147.656C290.323 146.129 292.693 146.182 295.22 147.235C297.274 148.025 299.222 149.078 300.96 150.395Z" fill="#5B99D8"/>
<path d="M320.339 158.978C320.97 159.031 321.55 159.136 321.55 159.768C321.55 160.294 320.97 160.4 320.549 160.4C320.023 160.452 319.443 160.347 319.443 159.663C319.443 159.136 320.023 159.136 320.339 158.978Z" fill="#B8D2EA"/>
<path d="M78.8961 195.471C77.527 193.154 75.7366 191.205 74.5254 188.783C79.1067 185.623 80.5285 185.36 87.5849 189.362C95.8523 194.049 104.015 198.841 112.229 203.58C114.336 204.844 116.653 205.845 118.496 207.53C120.549 209.425 120.392 210.742 117.864 212.216C115.073 213.901 112.282 215.534 109.438 217.166C102.171 221.379 94.9045 225.539 87.6375 229.699C87.3216 229.91 86.9003 230.015 86.5843 230.173C85.6891 229.278 85.2152 228.541 86.5317 227.382C87.0583 226.961 88.0061 226.224 87.6902 225.065C88.1114 224.749 88.4801 224.433 88.954 224.17C94.0093 221.221 99.1172 218.325 104.172 215.376C107.648 213.375 107.701 210.953 104.278 208.951C97.2215 204.791 90.1125 200.737 83.0035 196.629C81.7397 195.945 80.4232 195.365 78.8961 195.471Z" fill="#578BDE"/>
<path d="M3.01477 230.226C6.91155 227.33 11.3876 225.276 15.5476 222.748C18.2859 221.063 21.1295 219.589 23.9731 218.009C25.1316 218.483 25.7635 218.009 25.9742 216.85C26.1321 217.061 26.2901 217.219 26.4481 217.43C28.8178 220.431 28.6598 221.537 25.6055 223.749C25.1316 224.065 24.8157 224.591 24.3944 225.013C21.7614 226.592 19.1811 228.172 16.5482 229.752C13.2306 231.753 13.178 234.123 16.4955 236.071C21.4981 239.02 26.5008 241.916 31.556 244.76C34.7156 246.55 37.6118 248.762 41.1927 249.762C41.298 249.868 41.4033 250.026 41.4559 250.026C42.6671 250.078 43.457 250.552 43.0884 251.921C42.7198 253.185 41.8772 253.501 40.6661 253.027C39.7709 252.711 38.8756 252.764 38.0331 253.29C27.5539 247.287 17.0748 241.284 6.59559 235.281C5.96368 234.912 5.38443 234.544 4.75252 234.228C3.06743 233.385 2.38286 232.122 3.01477 230.226Z" fill="#63BED2"/>
<path d="M38.0854 253.29C38.928 252.817 39.8232 252.711 40.7184 253.027C41.9296 253.448 42.7721 253.133 43.1407 251.921C43.562 250.552 42.7721 250.078 41.5083 250.026C41.403 250.026 41.2977 249.868 41.245 249.762C43.246 249.71 45.1944 249.446 47.0375 248.393C57.6747 242.232 68.2591 236.071 78.9489 229.962C81.8452 228.33 84.6361 226.382 87.6904 225.065C88.0063 226.171 87.0058 226.908 86.5319 227.382C85.2154 228.488 85.6893 229.225 86.5845 230.173C86.3212 230.331 86.1106 230.489 85.8473 230.647C84.8468 230.858 85.2154 228.962 84.2675 229.436C83.425 229.857 84.0042 230.963 83.8462 231.753C77.8958 235.228 71.9453 238.651 65.9948 242.127C59.7284 245.76 53.4093 249.446 47.0902 253.08C44.1413 254.765 41.1397 255.028 38.0854 253.29Z" fill="#5DA0D8"/>
<path d="M83.8465 231.753C84.0045 230.963 83.4253 229.857 84.2678 229.436C85.2157 228.962 84.7944 230.805 85.8476 230.647C85.2683 231.174 84.5311 231.437 83.8465 231.753Z" fill="#578BDE"/>
<path d="M108.859 200.526C108.438 200.473 107.806 200.526 107.806 199.789C107.806 199.315 108.28 199.262 108.649 199.262C109.175 199.21 109.807 199.21 109.86 199.841C109.965 200.315 109.439 200.526 108.859 200.526Z" fill="#CDE4F9"/>
<path d="M280.686 124.223C275.789 124.592 270.944 123.696 266.152 122.959C264.362 122.696 262.624 122.117 260.939 121.537C259.307 120.958 258.411 119.168 258.78 117.588C259.149 115.955 260.518 115.113 262.466 115.166C263.045 115.166 263.572 115.534 264.151 115.166C264.415 115.324 264.625 115.429 264.889 115.587C269.259 117.641 273.683 119.326 278.633 119.168C279.475 119.747 280.37 119.431 281.266 119.484C283.583 119.536 284.53 120.958 283.688 123.328C282.793 123.749 281.845 124.276 280.686 124.223Z" fill="#02A5A5"/>
<path d="M280.528 158.241C283.477 156.029 286.742 154.186 290.06 152.712C293.324 151.237 296.484 152.396 299.433 154.133C305.963 158.03 312.598 161.874 319.18 165.666C320.707 166.561 321.602 167.719 321.708 169.51C321.076 170.3 320.391 171.037 319.759 171.827C317.284 172.617 315.178 174.196 312.966 175.46C300.381 182.675 287.795 189.889 275.262 197.156C270.786 199.736 266.31 202.369 261.834 205.002C260.254 205.95 258.569 206.266 256.832 206.371C253.356 206.319 250.986 203.844 248.195 202.316C242.719 199.315 237.4 196.103 232.029 192.996C231.555 192.732 231.134 192.469 230.713 192.153C228.448 190.363 228.501 188.362 230.923 186.835C233.925 184.939 237.084 183.254 240.139 181.411C245.721 178.093 251.513 175.197 256.884 171.511C258.464 171.037 259.728 170.089 261.15 169.299C264.73 167.298 268.259 165.244 271.839 163.243C272.787 163.559 272.787 164.455 272.84 165.139C273.156 169.036 273.419 172.985 273.683 176.882C273.788 178.462 273.893 180.094 274.051 181.674C272.893 182.991 271.366 183.833 269.786 184.623C268.575 185.202 267.047 186.045 267.627 187.625C268.206 189.204 269.891 189.099 271.366 188.941C271.945 188.888 272.577 188.678 272.945 188.309C274.314 186.835 275.842 185.939 277.948 185.676C279.686 185.466 280.16 183.938 279.212 182.727C279.844 181.621 279.738 180.41 279.528 179.304C278.79 175.671 279.212 172.143 280.37 168.667C281.423 165.613 281.529 162.453 280.528 159.347C280.318 159.031 280.476 158.609 280.528 158.241Z" fill="#879B29"/>
<path d="M271.734 163.296C268.154 165.297 264.625 167.351 261.045 169.352C259.675 170.142 258.359 171.09 256.779 171.564C256.253 171.511 255.779 171.616 255.305 171.985C253.409 173.407 251.039 173.828 248.933 174.881C248.248 175.25 247.88 174.934 247.511 174.354C246.985 173.512 246.353 172.775 245.773 171.985C253.146 167.719 260.465 163.454 267.838 159.136C269.049 158.399 270.313 157.714 271.576 157.03C272.314 159.083 273.051 161.137 271.734 163.296Z" fill="#5FAAD5"/>
<path d="M279.107 182.78C280.055 183.991 279.581 185.571 277.843 185.729C275.736 185.992 274.209 186.887 272.84 188.362C272.472 188.73 271.787 188.941 271.26 188.994C269.839 189.204 268.101 189.257 267.522 187.677C266.942 186.097 268.47 185.255 269.681 184.676C271.26 183.886 272.788 183.043 273.946 181.727C275.368 183.57 277.211 183.306 279.107 182.78Z" fill="#F8C2AB"/>
<path d="M192.114 153.08C187.796 155.134 183.794 157.767 179.634 160.136C172.156 164.349 164.731 168.72 157.306 172.985C155.726 173.88 154.252 174.881 152.725 175.829C149.039 177.619 145.669 176.987 142.193 174.881C135.874 170.984 129.397 167.403 122.972 163.665C122.657 163.454 122.288 163.243 121.972 163.033C119.234 161.242 119.181 158.978 121.972 157.24C124.5 155.66 127.133 154.239 129.765 152.712C135.979 149.078 142.246 145.445 148.459 141.758C149.618 141.179 150.776 140.6 151.882 139.968C156.99 137.072 162.098 134.123 167.153 131.174C167.627 131.858 168.049 132.701 169.155 132.385C169.892 138.599 170.05 144.813 169.944 151.026C168.575 152.185 166.996 152.764 165.31 153.291C163.941 153.712 162.204 154.291 162.625 156.029C162.993 157.714 164.836 157.767 166.311 157.767C166.68 157.767 167.153 157.714 167.417 157.504C169.155 156.082 171.103 155.608 173.315 155.66C174.368 155.713 175.105 154.871 175.21 153.765C175.316 152.869 175.632 151.764 174.21 151.448C175.79 151.079 175.948 149.921 175.684 148.604C175.526 147.867 175.474 147.024 175.316 146.34C174.262 142.232 175.632 138.336 176.632 134.544C177.475 131.437 177.317 128.383 176.948 125.329C178.844 124.697 180.371 123.275 182.477 122.906C184.636 122.485 186.69 122.748 188.533 123.802C195.747 127.909 202.962 132.122 210.176 136.335C213.388 138.23 213.283 140.811 209.965 142.706C204.489 145.866 199.012 148.973 193.536 152.132C193.062 152.396 192.588 152.764 192.114 153.08Z" fill="#32493F"/>
<path d="M167.153 131.174C162.045 134.123 156.937 137.072 151.882 139.968C150.776 140.6 149.617 141.179 148.459 141.758C147.3 140.705 145.931 140.021 144.299 139.915C143.93 139.915 143.825 139.547 143.667 139.231C147.616 136.493 151.934 134.333 156.042 131.859C159.412 129.805 162.888 127.909 166.363 125.961C166.942 125.592 167.574 125.065 168.311 125.645C168.311 125.908 168.311 126.224 168.311 126.487C167.206 127.909 167.1 129.542 167.153 131.174Z" fill="#5EA7D5"/>
<path d="M174.262 151.448C175.684 151.764 175.368 152.869 175.263 153.765C175.157 154.818 174.42 155.66 173.367 155.66C171.155 155.608 169.207 156.082 167.469 157.503C167.206 157.714 166.732 157.767 166.363 157.767C164.836 157.767 163.046 157.661 162.677 156.029C162.309 154.291 164.046 153.659 165.363 153.291C167.048 152.764 168.68 152.185 169.997 151.026C171.261 152.396 172.735 151.764 174.262 151.448Z" fill="#F8C1B1"/>
<path d="M167.153 131.174C167.101 129.541 167.206 127.909 168.312 126.54C168.575 128.488 169.102 130.384 169.102 132.385C167.996 132.754 167.627 131.858 167.153 131.174Z" fill="#DBBFBA"/>
<path d="M113.546 95.9976C113.335 96.5768 112.809 96.7348 112.282 96.6822C111.861 96.6295 111.282 96.5242 111.387 95.9449C111.492 95.3657 112.072 95.2077 112.598 95.2604C113.02 95.313 113.441 95.471 113.546 95.9976Z" fill="#B3CDE6"/>
<path d="M115.126 97.1562C114.863 97.5775 114.494 97.5248 114.125 97.3668C113.915 97.2615 113.651 97.1035 113.862 96.7876C114.125 96.3663 114.494 96.3663 114.863 96.5243C115.073 96.6296 115.284 96.8402 115.126 97.1562Z" fill="#8DAFD4"/>
<path d="M170.681 65.8766C170.839 66.0872 170.945 66.4032 171.155 66.4558C172.682 66.9298 173.314 67.667 172.314 69.2468C171.945 69.8787 172.682 70.3526 173.367 70.5632C176.316 71.4585 179.001 70.142 180.107 67.0877C181.634 68.3516 183.477 69.3521 184.425 71.2478C181.476 69.7207 179.423 70.9319 179.317 74.2494C179.265 75.8818 179.212 77.5143 179.949 79.0414C181.476 82.0956 180.95 85.5184 181.582 88.7307C181.74 89.5205 181.266 89.7838 180.687 89.9945C176.79 91.3109 172.788 92.1535 168.628 92.0482C166.521 91.9955 167.416 90.3631 167.153 89.3099C167.943 88.1514 167.996 86.9402 167.732 85.6238C167.364 83.5701 166.521 81.727 165.521 79.8839C165.257 79.3047 164.994 78.7254 164.731 78.1462C163.73 75.7238 163.414 73.3542 165.257 71.1425C166.574 69.5101 167.89 67.9303 169.207 66.2979C169.628 65.8766 169.997 65.4553 170.681 65.8766Z" fill="#889B29"/>
<path d="M87.6904 225.065C84.5835 226.382 81.8452 228.33 78.949 229.963C68.2592 236.071 57.6747 242.179 47.0376 248.393C45.1945 249.446 43.2461 249.71 41.245 249.762C37.6642 248.814 34.768 246.55 31.6084 244.76C26.5531 241.916 21.5505 239.02 16.5479 236.071C13.2304 234.123 13.283 231.753 16.6006 229.752C19.2335 228.172 21.8138 226.592 24.4468 225.013C25.026 225.065 25.3946 224.644 25.8159 224.381C34.294 219.483 42.7195 214.639 51.1976 209.741C51.6189 210.321 51.4083 211.005 51.3556 211.637C51.145 215.534 51.7242 219.325 52.4614 223.064C52.7247 224.855 52.4614 226.54 51.9875 228.225C51.4609 230.278 53.0407 231.858 54.9364 231.121C57.4641 230.12 60.0444 229.278 62.572 228.33C63.1513 228.119 63.8885 227.803 63.6252 226.961C63.4145 226.276 62.888 225.697 62.0454 225.75C61.1502 225.802 60.255 225.96 59.3598 226.013C57.2534 226.118 56.6742 225.592 56.5162 223.538C56.4635 223.012 56.4635 222.485 56.4635 222.011C56.6215 219.009 56.7268 216.008 56.8848 213.059C57.5694 210.9 57.8853 208.688 58.0433 206.424C58.9912 205.687 60.097 205.687 61.2029 205.476C67.3113 205.265 73.2091 203.686 79.0543 202.106C81.0554 201.579 81.5293 200.157 80.5814 198.314C80.1075 197.314 79.4756 196.419 78.8963 195.471C80.3708 195.418 81.6873 195.945 82.9511 196.682C90.0601 200.789 97.1691 204.844 104.225 209.004C107.648 211.005 107.596 213.428 104.12 215.429C99.0648 218.378 94.0095 221.274 88.9016 224.223C88.4803 224.433 88.1117 224.749 87.6904 225.065Z" fill="#2F201D"/>
<path d="M61.2027 205.423C60.0968 205.581 58.9383 205.634 58.0431 206.371C57.3585 206.687 57.0426 207.266 56.8319 208.004C56.358 209.689 56.5687 211.321 56.8846 212.954C55.1469 213.428 54.199 212.796 54.0937 211.005C54.041 209.583 53.5671 208.425 52.6719 207.372C52.6719 206.529 52.6719 205.739 52.6719 204.897C53.3564 204.002 54.357 203.58 55.4101 203.686C56.7793 203.738 57.8851 203.212 58.991 202.474C59.3596 202.422 59.7282 202.422 60.0968 202.369C60.6234 203.317 61.4133 204.212 61.2027 205.423Z" fill="#F7C3AC"/>
<path d="M60.0442 202.316C59.6756 202.369 59.307 202.369 58.9384 202.422C58.6751 200.473 59.2543 198.683 60.0442 196.945C61.6767 196.155 63.3091 195.365 64.7835 194.207C65.3101 194.102 65.8367 194.26 66.258 194.576C67.3112 195.313 69.0489 195.787 69.0489 197.051C69.0489 197.998 67.2059 198.051 66.258 198.63C64.1516 199.894 61.782 200.631 60.0442 202.316Z" fill="#5EA3D4"/>
<path d="M60.3078 195.945C61.4137 195.313 62.5195 194.681 63.6254 194.049C63.994 193.996 64.4679 193.68 64.7312 194.26C63.3094 195.418 61.6243 196.208 59.9919 196.998C59.8866 196.577 60.0972 196.261 60.3078 195.945Z" fill="#2F5A7A"/>
<path d="M294.694 39.5997C294.694 40.2316 294.167 40.2842 293.746 40.3369C293.272 40.3895 292.64 40.3369 292.535 39.705C292.429 39.1257 293.008 38.9678 293.43 38.9678C293.956 38.8624 294.43 39.0204 294.694 39.5997Z" fill="#B4CEE6"/>
<path d="M276 38.8624C278.896 39.863 281.266 41.864 283.951 43.2331C285.952 44.2863 287.901 45.4975 289.849 46.656C293.061 48.499 293.166 51.0267 290.06 52.9224C285.373 55.766 280.528 58.4516 275.789 61.2426C273.367 60.4527 273.735 58.5043 274.104 56.7139C274.788 53.3963 275.578 50.1315 275.736 46.7613C275.842 44.1283 275.42 41.4954 276 38.8624Z" fill="#9AAC35"/>
<path d="M52.6721 204.897C52.6721 205.739 52.6721 206.529 52.6721 207.372C51.9875 208.056 51.9875 209.162 51.1976 209.794C42.7195 214.639 34.2414 219.536 25.8159 224.433C25.3946 224.697 25.026 225.118 24.4468 225.065C24.8154 224.644 25.184 224.17 25.6579 223.801C28.7122 221.59 28.8701 220.537 26.5005 217.482C26.3425 217.272 26.1845 217.114 26.0266 216.903C34.5047 211.742 43.1408 206.845 51.8295 202C52.0402 202.948 52.3561 203.949 52.6721 204.897Z" fill="#60B1D4"/>
<path d="M259.78 18.7466C261.571 18.2727 263.203 17.5881 264.73 16.6403C264.994 16.4823 265.257 16.1663 265.573 16.4296C265.731 16.5876 265.731 16.9036 265.625 17.1142C264.994 19.0626 261.413 20.0631 259.78 18.7466Z" fill="#F5A283"/>
<path d="M25.9737 216.903C25.7631 218.062 25.1312 218.483 23.9727 218.062C24.5519 217.535 25.1312 217.061 25.9737 216.903Z" fill="#60B1D4"/>
<path d="M56.4638 221.958C56.4638 222.485 56.5165 223.012 56.5165 223.485C56.6218 225.539 57.2011 226.066 59.3601 225.96C60.2553 225.908 61.1505 225.75 62.0457 225.697C62.8882 225.644 63.3622 226.224 63.6255 226.908C63.8888 227.751 63.1515 228.067 62.5723 228.277C60.0447 229.225 57.4644 230.068 54.9367 231.068C53.041 231.806 51.4612 230.226 51.9878 228.172C52.4091 226.434 52.725 224.749 52.4617 223.012C53.4096 221.379 55.042 222.064 56.4638 221.958Z" fill="#FAC0AF"/>
<path d="M56.4636 221.958C55.0418 222.064 53.4094 221.379 52.4088 223.117C51.6716 219.325 51.0924 215.534 51.303 211.69C51.3557 211.058 51.5663 210.426 51.145 209.794C51.9349 209.215 51.9349 208.056 52.6195 207.372C53.5147 208.425 53.9886 209.583 54.0413 211.005C54.1466 212.796 55.0945 213.428 56.8322 212.954C56.7269 215.955 56.6216 218.957 56.4636 221.958Z" fill="#889A2E"/>
<path d="M56.8851 213.006C56.5692 211.374 56.3586 209.689 56.8325 208.056C57.0431 207.319 57.3591 206.74 58.0436 206.424C57.8857 208.636 57.5697 210.847 56.8851 213.006Z" fill="#889A2E"/>
</g>
<defs>
<clipPath id="clip0">
<rect width="335.807" height="261.4" fill="white" transform="translate(0.539551)"/>
</clipPath>
</defs>
</svg>
