<svg width="284" height="47" viewBox="0 0 284 47" fill="none" xmlns="http://www.w3.org/2000/svg">
<path d="M63.3537 28.0756V43.4864C63.3537 45.2858 61.8963 46.7431 60.097 46.7431H59.9037C58.1044 46.7431 56.6421 45.2858 56.6421 43.4864V26.8414H23.4312V43.4666C23.4312 45.2659 21.969 46.7282 20.1696 46.7282H19.8871C18.0878 46.7282 16.6255 45.2659 16.6255 43.4666V28.0161L23.3817 19.9067H56.5479L63.3537 28.0756Z" fill="#4CA9EE"/>
<path d="M23.342 19.9067H23.3817L16.6255 28.0161V3.26161C16.6255 1.46228 18.0878 0 19.8871 0H20.0804C21.8797 0 23.337 1.46228 23.337 3.26161V19.9067H23.342Z" fill="#29E7CD"/>
<path d="M63.3536 3.27667V28.0758L56.5479 19.9019V3.27667C56.5479 1.47734 58.0101 0.0200195 59.8095 0.0200195H60.097C61.8963 0.0200195 63.3536 1.47734 63.3536 3.27667Z" fill="#29E7CD"/>
<path d="M13.2943 9.86407V32.0162L7.43527 39.05C6.90489 38.47 6.58269 37.6968 6.58269 36.8541V26.8165H3.26161C1.46227 26.8165 0 25.3542 0 23.5549V23.2624C0 21.4631 1.46227 20.0008 3.26161 20.0008H6.54799V9.86903C6.54799 8.0697 8.01026 6.60743 9.8096 6.60743H10.0327C11.832 6.60248 13.2943 8.06474 13.2943 9.86407Z" fill="#29E7CD"/>
<path d="M79.9738 23.2079V23.4656C79.9738 25.265 78.5115 26.7273 76.7121 26.7273H73.4505V36.8442C73.4505 37.7215 73.1036 38.5196 72.5385 39.1045L66.6597 32.0509V9.86902C66.6597 8.06968 68.117 6.60742 69.9163 6.60742H70.1146C71.9139 6.60742 73.3762 8.06968 73.3762 9.86902V19.9463H76.7072C78.5164 19.9463 79.9738 21.4036 79.9738 23.2079Z" fill="#29E7CD"/>
<path d="M13.2945 32.0161V36.854C13.2945 38.6533 11.8323 40.1156 10.0329 40.1156H9.84457C8.89286 40.1156 8.03037 39.7042 7.43555 39.0499L13.2945 32.0161Z" fill="#4CA9EE"/>
<path d="M72.5385 39.1044C71.9486 39.719 71.1109 40.1056 70.1889 40.1056H69.9163C68.117 40.1056 66.6597 38.6483 66.6597 36.849V32.0508L72.5385 39.1044Z" fill="#4CA9EE"/>
<path d="M90.9187 13.6904V22.0675H100.589V13.6904H103.187V33.6963H100.589V24.313H90.9187V33.6963H88.3213V13.6904H90.9187Z" fill="#4CA9EE"/>
<path d="M109.056 26.9901C109.106 30.5194 111.346 31.9718 113.968 31.9718C115.837 31.9718 116.977 31.6347 117.944 31.2382L118.4 33.092C117.488 33.5084 115.892 34.009 113.611 34.009C109.2 34.009 106.548 31.0696 106.548 26.7671C106.548 22.415 109.111 19.0195 113.304 19.0195C117.988 19.0195 119.213 23.1288 119.213 25.7708C119.213 26.321 119.183 26.7126 119.123 26.9951H109.056V26.9901ZM116.699 25.1115C116.724 23.4658 116.025 20.8883 113.101 20.8883C110.434 20.8883 109.304 23.2973 109.096 25.1115H116.699Z" fill="#4CA9EE"/>
<path d="M130.425 33.6968L130.197 31.8825H130.117C129.329 33.0028 127.783 34.0239 125.726 34.0239C122.826 34.0239 121.344 31.9668 121.344 29.9048C121.344 26.43 124.427 24.5167 129.969 24.5563V24.254C129.969 23.0891 129.642 20.9279 126.702 20.9428C125.364 20.9428 123.971 21.3393 122.965 22.0135L122.37 20.2786C123.559 19.5103 125.294 19.0195 127.109 19.0195C131.495 19.0195 132.566 22.0184 132.566 24.8934V30.2617C132.566 31.486 132.621 32.7103 132.784 33.6968H130.425ZM130.018 26.3656C127.193 26.3061 123.961 26.8117 123.961 29.5875C123.961 31.3026 125.086 32.0858 126.4 32.0858C128.288 32.0858 129.483 30.8961 129.899 29.6817C129.988 29.4041 130.023 29.1067 130.023 28.8589V26.3656H130.018Z" fill="#4CA9EE"/>
<path d="M136.774 12.625H139.372V33.6966H136.774V12.625Z" fill="#4CA9EE"/>
<path d="M146.911 15.2124V19.3464H150.664V21.3242H146.911V29.0618C146.911 30.8513 147.427 31.8625 148.884 31.8625C149.558 31.8625 150.054 31.7782 150.396 31.6741L150.515 33.6568C150.009 33.8551 149.196 34.0137 148.18 34.0137C146.981 34.0137 145.984 33.6172 145.365 32.9084C144.646 32.1153 144.353 30.8513 144.353 29.1659V21.3192H142.133V19.3414H144.353V15.8816L146.911 15.2124Z" fill="#4CA9EE"/>
<path d="M153.598 12.625H156.196V21.587H156.255C156.686 20.8534 157.336 20.1941 158.134 19.743C158.892 19.292 159.819 19.0193 160.805 19.0193C162.739 19.0193 165.807 20.1991 165.807 25.1509V33.6966H163.209V25.4335C163.209 23.1186 162.332 21.1706 159.893 21.1706C158.183 21.1706 156.87 22.3652 156.374 23.7779C156.24 24.1447 156.2 24.5413 156.2 25.0221V33.6966H153.603V12.625H153.598Z" fill="#4CA9EE"/>
<path d="M179.036 13.6904V22.0675H188.707V13.6904H191.305V33.6963H188.707V24.313H179.036V33.6963H176.439V13.6904H179.036Z" fill="#29E7CD"/>
<path d="M198.631 15.287C198.631 16.1743 198.006 16.9079 196.97 16.9079C196.024 16.9079 195.394 16.1743 195.394 15.287C195.394 14.3898 196.063 13.6611 197.02 13.6611C197.991 13.6611 198.626 14.3749 198.631 15.287ZM195.716 33.6967V19.3417H198.314V33.6967H195.716Z" fill="#29E7CD"/>
<path d="M215.048 19.3413C214.974 20.3575 214.929 21.5223 214.929 23.2671V31.5996C214.929 34.9207 214.25 36.9133 212.882 38.1724C211.474 39.4661 209.462 39.8924 207.653 39.8924C205.918 39.8924 204.024 39.4859 202.859 38.7126L203.514 36.7051C204.47 37.3049 205.947 37.8551 207.737 37.8551C210.404 37.8551 212.362 36.4622 212.362 32.8239V31.2228H212.302C211.519 32.5711 209.953 33.6418 207.742 33.6418C204.163 33.6418 201.62 30.5983 201.62 26.6229C201.62 21.7553 204.788 19.0142 208.099 19.0142C210.592 19.0142 211.94 20.298 212.575 21.4926H212.634L212.743 19.3413H215.048ZM212.332 24.9871C212.332 24.5609 212.292 24.1693 212.188 23.8223C211.707 22.3005 210.448 21.0465 208.52 21.0465C206.032 21.0465 204.242 23.1531 204.242 26.4891C204.242 29.2996 205.69 31.6591 208.49 31.6591C210.111 31.6591 211.564 30.6379 212.124 28.9675C212.262 28.5462 212.327 28.0356 212.327 27.5796V24.9871H212.332Z" fill="#29E7CD"/>
<path d="M219.251 12.625H221.849V21.587H221.908C222.34 20.8534 222.989 20.1941 223.787 19.743C224.545 19.292 225.472 19.0193 226.459 19.0193C228.392 19.0193 231.46 20.1991 231.46 25.1509V33.6966H228.863V25.4335C228.863 23.1186 227.985 21.1706 225.547 21.1706C223.837 21.1706 222.523 22.3652 222.027 23.7779C221.893 24.1447 221.854 24.5413 221.854 25.0221V33.6966H219.256V12.625H219.251Z" fill="#29E7CD"/>
<path d="M236.744 19.3415L238.672 26.6231C239.084 28.2242 239.451 29.7261 239.738 31.2033H239.812C240.13 29.7559 240.606 28.1994 241.096 26.643L243.441 19.3366H245.637L247.872 26.5141C248.383 28.2143 248.809 29.736 249.141 31.1983H249.211C249.473 29.7459 249.86 28.2341 250.326 26.5339L252.378 19.3316H254.951L250.316 33.6866H247.947L245.766 26.8363C245.245 25.2253 244.844 23.7878 244.492 22.1025H244.432C244.07 23.8374 243.624 25.3244 243.119 26.8561L240.809 33.6817H238.42L234.092 19.3267H236.744V19.3415Z" fill="#29E7CD"/>
<path d="M265.523 33.6968L265.295 31.8825H265.216C264.428 33.0028 262.881 34.0239 260.824 34.0239C257.924 34.0239 256.442 31.9668 256.442 29.9048C256.442 26.43 259.526 24.5167 265.067 24.5563V24.254C265.067 23.0891 264.74 20.9279 261.801 20.9428C260.467 20.9428 259.07 21.3393 258.063 22.0135L257.468 20.2786C258.658 19.5103 260.393 19.0195 262.207 19.0195C266.594 19.0195 267.665 22.0184 267.665 24.8934V30.2617C267.665 31.486 267.719 32.7103 267.883 33.6968H265.523ZM265.122 26.3656C262.296 26.3061 259.065 26.8117 259.065 29.5875C259.065 31.3026 260.19 32.0858 261.503 32.0858C263.392 32.0858 264.586 30.8961 265.003 29.6817C265.092 29.4041 265.127 29.1067 265.127 28.8589V26.3656H265.122Z" fill="#29E7CD"/>
<path d="M272.815 19.3413L275.953 27.8274C276.29 28.7742 276.642 29.8994 276.875 30.7569H276.949C277.207 29.9143 277.524 28.8138 277.866 27.7679L280.706 19.3413H283.477L279.551 29.5673C277.692 34.5043 276.414 37.0174 274.634 38.5689C273.345 39.6842 272.071 40.1303 271.432 40.2443L270.783 38.0633C271.437 37.8551 272.289 37.4487 273.068 36.7894C273.772 36.2194 274.644 35.2082 275.249 33.8797C275.383 33.6022 275.452 33.4138 275.452 33.2502C275.452 33.1015 275.407 32.8983 275.269 32.581L269.975 19.3413H272.815Z" fill="#29E7CD"/>
</svg>
