<svg width="21" height="20" viewBox="0 0 21 20" fill="none" xmlns="http://www.w3.org/2000/svg">
<path d="M5.99999 16C4.89999 16 4.00999 16.9 4.00999 18C4.00999 19.1 4.89999 20 5.99999 20C7.09999 20 7.99999 19.1 7.99999 18C7.99999 16.9 7.09999 16 5.99999 16ZM16 16C14.9 16 14.01 16.9 14.01 18C14.01 19.1 14.9 20 16 20C17.1 20 18 19.1 18 18C18 16.9 17.1 16 16 16ZM6.16999 12.75L6.19999 12.63L7.09999 11H14.55C15.3 11 15.96 10.59 16.3 9.96998L20.16 2.96L18.42 2H18.41L17.31 3.99999L14.55 8.99998H7.52999L7.39999 8.72998L5.15999 3.99999L4.20999 2L3.26999 0H0V2H2L5.59999 9.58998L4.24999 12.04C4.08999 12.32 3.99999 12.65 3.99999 13C3.99999 14.1 4.89999 15 5.99999 15H18V13H6.41999C6.28999 13 6.16999 12.89 6.16999 12.75Z" fill="white"/>
</svg>
